<svg id="Layer_1" data-name="Layer 1" xmlns="http://www.w3.org/2000/svg" viewBox="0 0 493.21 493.54"> <defs> <style> .cls-1 { fill: #586c84; } .cls-2 { fill: #fff; } .cls-3 { fill: #0a2b49; } </style> </defs> <path class="cls-2" d="M243.02,493.51c22.41.29,44.37-2.25,65.75-7.86,17.09-4.48,34.84-10.99,50.38-19.13l3.06-1.6,3.43-1.89,3.97-2.2,3.57-2.02c2.23-1.27,4.19-2.84,6.43-4.12l1.96-1.12c2-1.14,3.68-2.74,5.75-3.83.95-.5,1.63-1.3,2.48-1.87,7.88-5.29,21.09-16.33,27.82-23.02l7.02-6.98,6.43-6.89,1.94-2.39,1.54-1.88c1.04-1.26,2.07-2.22,3.08-3.48,1.64-2.06,6.74-8.5,7.98-10.33l1.73-2.57c.66-.98,1.48-1.81,2.14-2.82l3.8-5.78,5.05-8,2.12-3.76,2.21-3.98,1.87-3.41,1.5-2.86c6.39-12.19,13.68-30.2,17.28-43.5l2.72-10.06c3.82-14.13,5.97-28.53,6.64-43.16l.3-6.59c.3-6.5.33-12.98,0-19.49l-.32-6.35c-1.25-25.18-7.02-49.78-16.16-73.32-1.21-3.12-2.18-5.96-3.6-8.86-1.08-2.2-1.8-4.5-2.92-6.67l-1.88-3.65c-1.01-1.96-1.86-3.86-2.91-5.8l-1.65-3.04-1.87-3.41-2.76-4.98-5.6-8.97c-.57-.91-1.14-1.8-1.74-2.67l-3.53-5.12-4.35-5.95c-4.52-6.18-14.26-17.71-19.69-23.05l-2.97-2.91-3.22-3.27c-2.85-2.9-5.87-5.49-8.93-8.15l-5.14-4.47c-1.68-1.46-3.32-2.9-5.13-4.17l-3.11-2.18c-1.35-.95-5.7-4.47-7.44-5.62l-6.89-4.55-7.6-4.79c-1.41-.89-2.86-1.65-4.34-2.45l-10.24-5.57-6.18-3.09-7.8-3.5c-23.68-10.63-56.21-18.57-82.07-19.81l-6.59-.32c-6.35-.31-12.65-.36-19.05-.05l-3.8.18c-17.76.86-35.21,3.65-52.3,8.37l-4.93,1.36c-9.59,2.65-18.89,6.05-27.94,10.15l-8.98,4.07-4.59,2.3c-1.41.71-2.82,1.48-4.24,2.24l-3.23,1.74-3.58,2-3.74,2.16-7.02,4.43c-1.92,1.21-3.78,2.32-5.61,3.72-.54.42-1.25.85-1.83,1.2-1.32.78-5.95,4.39-7.37,5.42l-3.57,2.59c-1.86,1.35-3.59,2.78-5.33,4.3l-4.96,4.33-5.41,4.84c-1.35,1.21-2.56,2.38-3.82,3.65l-2.66,2.68c-1.08,1.09-2.27,2.2-3.36,3.33l-2.16,2.25c-6.3,6.55-12.1,13.3-17.41,20.64l-4.19,5.8c-1.66,2.3-3.29,4.54-4.82,6.96-1.65,2.62-3.08,5.27-4.98,7.74-.68.89-1.03,1.87-1.55,2.8l-2.11,3.79-2.34,4.17-1.58,3.07c-.7,1.36-1.66,2.52-2.14,4.04-.38,1.22-1.14,2.15-1.65,3.28l-3.75,8.33c-.81,1.8-1.45,3.4-2.22,5.32C7.4,179.98,1.3,207.9.2,236.51c-1.38,35.9,4.45,70.19,17.83,103.41.77,1.9,1.46,3.51,2.25,5.29l2.92,6.64c.51,1.15,1.12,2.15,1.67,3.3l2.02,4.2c.83,1.73,2.47,4.53,3.52,6.45l2.62,4.78,1.59,2.77,4.11,6.5,1.37,2.28c1.45,2.41,7.45,10.82,9.35,13.26l6.23,8c.9,1.16,1.68,2.16,2.8,3.19.73.67,1.31,1.72,2.04,2.54,2.72,3.03,5.31,6.05,8.19,8.88l3.17,3.12,3.49,3.55c2.86,2.91,5.79,5.55,8.92,8.18l9.75,8.17,3.26,2.4c2.05,1.51,3.99,3.01,6.09,4.43.7.47,1.18,1.04,1.93,1.53l6.73,4.42,7.96,5.01,3.57,2.02,3.79,2.09,3.61,1.96,3.21,1.77,5.41,2.67,8.54,3.85c2.16.97,4.11,1.79,6.4,2.7,28.1,11.2,57.88,17.24,88.49,17.63Z"/> <path class="cls-3" d="M243.02,493.51c-30.61-.4-60.39-6.43-88.49-17.63-2.29-.91-4.23-1.73-6.4-2.7l-8.54-3.85-5.41-2.67-3.21-1.77-3.61-1.96-3.79-2.09-3.57-2.02-7.96-5.01-6.73-4.42c-.74-.49-1.23-1.05-1.93-1.53-2.1-1.42-4.04-2.92-6.09-4.43l-3.26-2.4-9.75-8.17c-3.13-2.62-6.06-5.27-8.92-8.18l-3.49-3.55-3.17-3.12c-2.88-2.84-5.47-5.86-8.19-8.88-.73-.81-1.31-1.87-2.04-2.54-1.11-1.02-1.89-2.03-2.8-3.19l-6.23-8c-1.9-2.44-7.9-10.85-9.35-13.26l-1.37-2.28-4.11-6.5-1.59-2.77-2.62-4.78c-1.05-1.92-2.69-4.72-3.52-6.45l-2.02-4.2c-.55-1.15-1.16-2.14-1.67-3.3l-2.92-6.64c-.79-1.78-1.48-3.39-2.25-5.29C4.65,306.7-1.18,272.41.2,236.51c1.1-28.62,7.21-56.53,17.92-83.05.77-1.91,1.41-3.51,2.22-5.32l3.75-8.33c.51-1.14,1.27-2.07,1.65-3.28.47-1.51,1.44-2.68,2.14-4.04l1.58-3.07,2.34-4.17,2.11-3.79c.52-.93.86-1.92,1.55-2.8,1.9-2.47,3.33-5.13,4.98-7.74,1.53-2.43,3.16-4.66,4.82-6.96l4.19-5.8c5.31-7.35,11.11-14.09,17.41-20.64l2.16-2.25c1.09-1.14,2.28-2.25,3.36-3.33l2.66-2.68c1.26-1.27,2.47-2.44,3.82-3.65l5.41-4.84,4.96-4.33c1.74-1.52,3.47-2.95,5.33-4.3l3.57-2.59c1.43-1.03,6.05-4.65,7.37-5.42.59-.34,1.29-.78,1.83-1.2,1.83-1.4,3.69-2.5,5.61-3.72l7.02-4.43,3.74-2.16,3.58-2,3.23-1.74c1.42-.76,2.82-1.53,4.24-2.24l4.59-2.3,8.98-4.07c9.05-4.1,18.35-7.5,27.94-10.15l4.93-1.36c17.09-4.73,34.54-7.51,52.3-8.37l3.8-.18c6.4-.31,12.7-.26,19.05.05l6.59.32c25.86,1.24,58.39,9.18,82.07,19.81l7.8,3.5,6.18,3.09,10.24,5.57c1.48.8,2.93,1.56,4.34,2.45l7.6,4.79,6.89,4.55c1.74,1.15,6.09,4.68,7.44,5.62l3.11,2.18c1.81,1.27,3.45,2.7,5.13,4.17l5.14,4.47c3.06,2.66,6.08,5.26,8.93,8.15l3.22,3.27,2.97,2.91c5.44,5.33,15.18,16.86,19.69,23.05l4.35,5.95,3.53,5.12c.6.87,1.17,1.76,1.74,2.67l5.6,8.97,2.76,4.98,1.87,3.41,1.65,3.04c1.05,1.94,1.9,3.84,2.91,5.8l1.88,3.65c1.12,2.17,1.84,4.48,2.92,6.67,1.43,2.9,2.39,5.74,3.6,8.86,9.13,23.53,14.91,48.14,16.16,73.32l.32,6.35c.32,6.5.29,12.98,0,19.49l-.3,6.59c-.66,14.63-2.82,29.03-6.64,43.16l-2.72,10.06c-3.6,13.3-10.89,31.31-17.28,43.5l-1.5,2.86-1.87,3.41-2.21,3.98-2.12,3.76-5.05,8-3.8,5.78c-.66,1-1.48,1.84-2.14,2.82l-1.73,2.57c-1.23,1.83-6.33,8.27-7.98,10.33-1.01,1.27-2.04,2.22-3.08,3.48l-1.54,1.88-1.94,2.39-6.43,6.89-7.02,6.98c-6.73,6.69-19.94,17.73-27.82,23.02-.85.57-1.53,1.36-2.48,1.87-2.07,1.09-3.75,2.69-5.75,3.83l-1.96,1.12c-2.24,1.28-4.2,2.86-6.43,4.12l-3.57,2.02-3.97,2.2-3.43,1.89-3.06,1.6c-15.55,8.14-33.29,14.65-50.38,19.13-21.38,5.61-43.34,8.15-65.75,7.86ZM283.88,54.25l-.06-4.4c-.02-1.37-.99-1.7-2.03-2.1-.29-.11-7.3-3.25-6.95-4.22,1.76-1.28,9.58-3.11,9.48-5.16l-.27-5.3c-.36-.83-1.97-.32-2.52-.77s-5.11-2.6-6.29-2.45c-.48-.55.21-2.03,1.02-2.12.41-.04,4.36-2.06,4.84-2.38.78-.5,2.51-.67,2.81-1.76.22-.79.5-6.49-.31-6.9-.34-.17-.72.19-1.11.19l-5.76.12c-1.96.04-1.75,2.92-2.39,4.38-.44,1-.78,1.8-.79,2.96s-1.4,1.62-2.14,1.47c-2.59-.52-.61-1.87-2.64-5.63-.4-.73,0-1.74-.81-2.46-1.16,1.52-1.13,3.27-1.69,4.89-.23.68-.87,1.1-.84,1.99s-.97,1.1-1.59,1.02c-1.76-.24-.38-1.62-1.89-3.57-.68-.88-.19-3.43-1.51-3.22-1.17.19-.68,2.9-1.3,3.77s-.73,1.52-.83,2.63c-.07.75-1.31.65-1.79.56-1.61-.31-2.6-7.55-3.49-9.48l-8.77.09c-.07,6.66-1.06,6.48,2.82,8.71,2.15,1.23,3.1,1.87,5.79,2.99-.24,1.68-1.88,2.59-3.47,2.46-.87-.07-1.22.55-1.9.92-.96.53-2.71.82-3.15,2.01-.54,1.47.04,3.22-.19,4.82-.26,1.81,1.8,1.39,4.96,3.38,1.09.69,2.97.94,3.66,2.23.29.55-2.91,1.64-3.97,2.22-.94.52-1.67,1.13-2.87,1.11-.93-.02-1.51.64-1.5,1.57l.05,5.91c.02,2.67,6.5.43,7.72.56.76.08,1.64-.68,1.46-1.47-.28-1.2.65-1.66.84-2.6.3-1.5.6-3.87,2.38-4.42,2.46-.77,2.42,5.86,3.54,6.34,1.21.51,1.67-4.07,1.77-4.55.12-.6.71-1.16,1.12-1.7.35-.45,1.93-.5,2.17.08.33.79.59,1.46.98,2.19.85,1.58.54,5.08,1.92,4.6.28-.1.6-.49.55-.89-.16-1.24.55-2.01.95-3s.51-1.87,1.56-2.18c.65-.19,2.33-.17,2.38.84.09,1.69.27,3.08,1.18,4.47.45.69-.05,2.56,1.23,2.79,2.21.4,4.62.03,6.91.12.4.02.68-.41.82-.59.15-.19-.05-.62-.06-1.11ZM195.45,57.54c1.96-1.93,4.04-3.59,6.19-5.24,1.45-1.12,2.59-.93,4.48-.47l2.45.6c.91.22,1.7.74,2.6.89l1.81.31c-2.79-.48,7.66,3.14,6.13,2.3.83.46,1.71.67,2.59.84.71.14,2.69,1.03,2.63-.28-.2-3.84-1.49-7.66-2.05-11.53-.1-.71-.7-1.13-1.09-1.27-.47-.17-1.16.21-1.68.17l-4.23-.3c-.66-.05-1.35-.32-1.52-.8-.59-1.65,2.57-2.39,2.95-2.71,2.43-2,3.58-1.07,3.55-2.19-.01-.34-.33-.92-.78-.95l-2.88-.19c-.94-.06-1.59-.75-2.65-.29-.41.18-1.14.04-1.34-.25-.25-.36-.19-1,.03-1.44.61-1.27,2.01-1.32,3.12-1.88.82-.41,1.3-1.24,2.41-1.31,2.75-.19-.71-8.54-.8-12.38-.01-.56-.34-.91-.69-1.03-.11-.04-3.93,2.55-4.43,2.94l-4.34,3.38-4.14,3.24c-1.19.93-2.36,1.83-3.54,2.73-1.59,1.23-3.62,1.16-5.15-.07-.46-.36-1.79.3-2.12-.29-.68-1.18-1.75-.91-2.71-1.21l-3.07-.95c-1.08-.34-1.81-.43-2.71-.72-1.16-.38-2.25-1.73-3.78-1.34-.24.06-.68-.65-.89-.56-.16.07-.72.11-.66.44l2.48,12.75c1.05.35,1.99-.01,2.98.18,3.93.74,5.63-.46,5.66,1.37.02,1.54-1.08.63-4.9,2.84-.74.43-1.59.52-2.28,1.17.24,1.09,1.46,1.1,2.44,1.45l1.55.56c1.12.4,2.62-.57,3.94-.12.49.17.88,1.45.51,1.79-.9.82-2.3.5-3.22,1.23-2.81,2.21-4.39,1.34-4,3.36l2.11,10.94c.08.4.32.76.6.82.54.11,5.83-4.08,6.69-5.12.53-.64,1.25-.83,1.78-1.36ZM311.06,45.03c1.88-1.12,2.42-3.32,1.34-4.82-1.02-1.41-3.3-1.8-4.62-.6-1.23,1.11-1.9,2.82-.92,4.15s2.77,2.13,4.2,1.28ZM345.52,77.11c.26-1.25.65-2.73,1.47-3.74,2.29,1.03.12,2.01,4.13,6.14.45.47.57,1.15,1.33.95,2.78-.72-.27-7.04.29-8.52s4.82,1.23,5.65,1.81c.66.46,1.87.15,2.69,1,1.29-2.62-2.43-5.87-4.16-7.24-.37-.29-.41-.77-.23-1.09.35-.64,7.2.75,8.79-1.29s-7.3-3.69-7.25-5.13c.17-1.13,1.92-1.12,2.67-1.62,1.48-1,3.53-1.79,3.51-3.47,0-.36-.21-1.12-.77-1.26-3.35-.79-6.53,2.18-7.14.79-.14-.31-.38-1.1-.1-1.52.79-1.22,3.5-5.76,2.07-6.71-1.03-.69-3.98,1.22-4.73,1.87-.79.68-1.21,1.8-2.42,1.97-.59.08-.92-.39-1.16-.79s.57-.94.47-1.31c-.49-1.85.81-2.76-1.37-6.36-1.89,1.35-3.18,3.25-3.68,5.43-.12.54.57,1.86-.59,2.03-.89.13-2.16-1.18-2.43-2.11-.39-1.36-1.07-1.89-2.13-2.69-.37-.28-.27-1.2-.75-1.24-.38-.03-1.39-.18-1.47.39-.79,5.87-.2,2.05.98,7.86-.21.75-1.97.38-2.52-.04-.94-.71-6.24-4.09-6.59-2.05-.4,2.31,2.9,4.46,4.1,6.86-1.51.87-2.98.88-4.6.78-1.03-.07-2.94.49-3.51,1.34-.52.79.85,1.61,1.35,1.89l2.79,1.55c1.12.62,2.55.54,3.44,1.92-2.54,1.53-5.21,1.8-6.57,4.17-.24.42-.08,1.73.55,1.73.88,0,1.74.11,2.69.17,1.64.1,3.28-1.33,4.83-1.06,2.31.41-4.79,7.7-2.22,8.69.95.37,2.74-.43,3.35-1.18,1.07-1.34,4.06-3.33,4.62-2.41.97,1.56-1.03,5.34,1.04,7.58,1.45,1.57,3.43-3.38,3.58-4.08ZM144.13,83.62c.25.01.77-.16.85-.57.15-.81.81-1.05,1.21-1.6.99-1.38.68-3.8,1.72-5.02.93-1.09,2.07.68,2.35,1.44.32.88,3.18,6.6,4.28,4.93.89-1.36.15-2.92-.12-4.23-.19-.9.36-1.8-.13-2.8-.23-.46-.09-1.37.25-1.58s1.41-.46,1.7-.07c.57.77,1.53,1.03,2.08,1.63,1.93,2.07,4.34,1.54,4.32,1.55,1.15-1-1.93-4.73-2.78-5.56-.54-.53-2.24-1.81-1.86-2.83.47-1.24,4.12.35,5.38.03,1-.25,1.78-.76,2.95-.45.4.1.8-.35.88-.58s-.18-.83-.49-.85c-1.05-.08-1.17-1.29-1.85-1.49l-4.67-1.34c-.62-.18-.4-1.16-.32-1.76.12-.83,5.48-3.81,4.96-3.31l1.71-1.64c-4.88-2.81-9.87,3.46-9.15-1.25.09-.6.65-.93,1.23-1.41.51-.42.28-1.32.76-1.82.91-.96,1.92-2.52,1.38-3.94s-5.74,3.16-7.7,4.24c-.59.33-1.01-.76-1-1.34.01-1.14.82-2.32.5-3.33-.75-2.32.33-3.59-1.27-3.92-.94-.19-.89.6-1.34,1.15-2.32,2.84-.65,3.91-2.53,6.15-1.38-.53-1.9-1.73-2.58-2.78l-1.84-2.82c-.29-.44-1.24-1.43-1.83-.97-1.07.83-.57,2.56-.4,3.71s-.15,2.07.45,3.01c.36.57.3,1.29-.04,1.78s-.99.37-1.67.48-.55-1.03-1.05-1.25c-3.46-1.49-.82-1.75-5.75-2.21.74,3.11,1.19,4.9,4.15,6.25.57.26.12,1.5-.22,1.83-1.43,1.41-3.4-.37-4.9.45-1.87,1.03-3.65-.49-3.33.99.18.86,2.62,2.32,2.29,2.23l4.87,1.34c.88.24.4,2.47-3.26,3.57-.5.15-4.6,2.48-3.11,3.35,1.3.77,2.85.04,4.19-.04,1.14-.07,2.1.08,3.18-.39.33-.14,1.26.18,1.12.58-.31.91-1.12,1.63-1.07,2.63.11,2.17-2.03-.01-2,5.56,2.75-.05,7.81-5.35,8.51-4.09.6,1.08-.5,3.6-.46,5.51,0-.22.5,2.81,1.45,2.85ZM390.92,122.34c-.01.52.66.9.95.94.41.06.74-.27,1.1-.61l7.23-6.7c.48-.44.98-.76,1.06-1.33.07-.53-.07-1.26-.49-1.72-1.02-1.11-1.34-2.35-1.93-3.68-.33-.75-1.19-1.56-.35-2.28.53-.45,1.62-.6,2.22.11.86,1.02,1.91,1.2,3.1,1.68.58.24.96,1.6,1.92,1.37.84-.21.68-1.96.06-2.53-.88-.8-.94-1.78-1.29-2.83-.21-.63-1.69-1.73-.93-2.47,1.33-1.31,3.04.33,4.17,1.09.9.6,1.89.68,2.61,1.59.23.29.71.57.98.51s.67-.2.92-.44l9.08-8.35c-1.66-.24-2.37-1.21-3.47-1.62l-15.17-5.71c-2.42-.91-3.5-2.27-3.81-4.82-.16-1.25-.81-5.52-1.31-6.59s-.36-1.8-.57-2.71c-.25-1.07-.92-1.77-.73-3.24.15-1.18-.66-2.56-1-3.79l-3,2.62c-2.06,1.8-3.9,3.69-6.07,5.38-.38.29-.67.7-.71,1-.08.49.27.81.5,1.25l2.28,4.53c.34.67,1.28,1.08.79,1.84-1.66,2.55-1.74-.61-5.94-2.31-.52-.21-1.22-1.39-1.81-.99-1.03.7-.23,1.96-.03,2.81.85,3.68,3.35,3.83,2.49,5.28-1.63,2.76-1.18-.49-5.97-2.11-.48-.16-.77-1.12-1.24-1.12-.64,0-1.29-.07-1.82.42l-8.38,7.71c-.41.38.18.95.37,1.18.17.21.83.06,1.12.21,2.61,1.33,5.28,2.04,7.91,2.93,1.06.36,2.13.48,3.23.9l4.63,1.77c1.74.67,2.65,1.66,2.99,3.36s1.06,3.32,1.51,5.01c1.18,4.38-.32,1.21,1.35,6.98.29,1.01.34,1.91.56,2.93.17.8.96,1.37.93,2.52ZM115.37,85.28c.25-1.42-.76-2.65-1.76-3.25-1.57-.95-3.3.13-4.07,1.64-.68,1.34.15,3.33,1.85,4.03,1.48.61,3.66-.59,3.98-2.41ZM92.63,144.61c.66-1.15,1.76-2.1,2.11-3.2.38-1.19.83-2.22,1.35-3.35.44-.97-1.25-1.75-1.69-2.34-.55-.74-.71-1.46-1.53-2.04-.87-.62-1.92-2.35-1.49-3.43.58-1.47,2.46-.68,3.44-.4,1.24.36,2.35.49,3.64,1.34,1.65-2.55-5.74-4.6-2.76-7.94.54-.61,1.06.06,1.68.12,3.95.38,5.45,2.41,6.21,1,.11-.21-.17-.77-.43-.87-1.34-.53-1.48-1.58-2.22-2.57-.51-.69-1.33-1.8-.95-2.61.3-.65,1.4-1.86,2.1-1.35,1.54,1.11,2.82,1.28,4.58,1.58.82.14,2.24,1.54,3.09.28,1.37-2,2.75-4.07,3.9-6.28l-4.75-3.2c-1.03-.69-1.89-.29-2.77.3-.95.64-6.64,4.37-7.71,3.94-.09-3.19,1.23-4.52,1.24-7.4,0-.82.75-2.42-.03-3.12-1.44-1.18-3.22-2.34-4.93-3.05-.94-.13-1.46,1.33-2.09,1.63-.83.4-1.54,1.11-2.3,1.4-1.37.53-2,1.39-2.92,2.48-.54.64-1.42-.69-1.35-1.33l.57-5.46c.12-1.18.69-2.76.12-3.89-1-.73-5.17-3.96-6.02-3.37-.26.18-.2.65-.36,1.01-1.4,3.19-4.36,4.97-2.93,6.82.65.83,1.71,1.42,2.24,2.33.65,1.12,1.26,1.93,2.34,2.69.54.38.32,1.6-.03,2.02-1.33,1.6-2.23.31-6.56-.74-.77-.19-1.31-1.21-2.28-.34.85.49.92,1.58,1.48,2.06,1.06.9,1.58,1.87,2.35,2.96.4.55,1.24,1.18.94,1.85-.23.51-.92,1.43-1.59,1.05-1.01-.58-1.86-.88-3.05-.8-.88.06-2.76-1.75-3.34-.42-.15.33.1.9.47,1.15,1.24.86,1.83,2.07,2.72,3.14.53.63,1.48.87,1.06,1.83-.21.48-.62,1.28-1.47,1.15l-2.73-.41c.97.15-5.82-2.19-6.09-2-.2.13-.53.32-.73.65l-4.05,6.7c1.69,1.25,3.2,2.13,4.81,3.15,1.16.73,2.79.22,3.69-.68.68-.68,1.71-.55,2.4-1.09.31-.24,4.04-2.69,4.05-1.79.82,3.8-.79,2.99-.82,6.64,0,.92-.7,2.24.13,3,1.29,1.19,3,1.96,4.37,2.96.97.71,1.29-.16,1.86-.53,2.26-1.49,4.44-2.74,7.21-4.14.04,2.47-.28,4.62-.72,6.88-.18.92-1.35,1.92-.19,2.8,1.5,1.13,3.13,2.18,4.78,3.22.48.3,1.5.8,1.95.02ZM423.51,172.8c.74.36,1.6-.66,2.1-1.01,1.11-.78,3.15-1.24,3.54-2.7.22-.83-.36-2.35-.36-3.23v-2.24c0,.5-.98-3.8.62-4.28,1.21-.36,6.93,6.16,8.95,5.38,1.55-.6,3.2-1.72,4.38-2.73.88-.75-.83-1.86-.68-2.47.2-.85-.15-1.9-.16-2.58-.02-1.57-.24-2.56-1.13-4.05-.26-.6,1.09-1.08,1.61-1.08.92,0,3.03,1.96,5.04,2.93,1.24.6,2.12,1.63,3.56,2.15,1.83-.99,3.53-1.87,5.39-3.36-1.5-1.98-2.45-4.47-4.08-6.13-1.19-1.22-2.76.61-3.73.7-1.35.13-2.35-.01-3.66.77-.77.47-2.28-.36-2.54-1.05-.37-.97.07-2.05.85-2.77,1.26-1.17,2.11-2.58,3.68-3.81-1.05-.8-2.35-.39-3.33.4-.58.47-1.34-.16-1.93-.02-.77.18-1.37.94-2.15.37-.52-.38-1-.91-.96-1.76.04-.68.99-.95,1.38-1.57.69-1.08.99-2.15,2.33-2.68.35-.14.42-.8.29-1.03-.59-1-1.29.74-4.89.77-.47,0-.97.82-1.62.5-.59-.29-1.7-1.58-1.36-2.15.81-.67.93-1.93,1.51-2.51.71-.71,1.58-.8,2.07-1.82.58-1.19,2.06-1.83,2.86-3l-4.52-7c-1.7,1.06-3.62,1.75-4.98,3.14-1.04,1.06-.48,5.82-.43,7.35l.09,2.89c-1.1.94-2.89-.06-3.62-1.09-.85-1.2-5.36-3.59-5.53-3.49l-4.76,2.84c.17,1.67.39,3.18.5,4.81l.32,4.96c.03.4-.68.42-.91.39.3.04-4.71-2.94-5.25-3.54-.85-.94-1.6-2.11-3.15-1.22-1.63.94-3.33,1.95-5.03,3.24,1.56,3.14,2.37,4.2,4.5,6.66.59.68,1.79-.32,2.35-.57.83-.36,1.79.13,2.47-.32,1.92-1.27,4.31-.55,4.71.77.55,1.81-2.37,3.6-3.68,5.35,1.22.64,2.34.19,3.47-.49,1.03-.62,2.85-.38,3.62.44.43.46.6.93.69,1.34.11.49-.64.7-.79,1.11-.45,1.3-1.31,1.87-2.26,2.73-.48.43-.49,1.29-1.35,1.52-.31.08-.22.72-.01.71.14,0,.63.12.72,0,.85-1.14,2.11-.61,3.1-.77,1.2-.19,1.93-.71,3.24.24.6.44.57,1.2.5,2.2-.1,1.4-1.43.2-3.07,3.31-.47.89-1.66,1.3-2.07,2.21-.51,1.13.32,2.06,1.02,2.85.91,1.02,1.12,2.83,2.51,3.52ZM67.1,195.22c.32-2.22-.36-4.21-.63-6.28-.14-1.06-.02-2.08-.32-3.25-.56-2.18-.44-4.72-.75-6.62-.15-.95.46-2.75,1.21-3.12.85-.41,1.26-1.1,1.9-1.65.77-.66,1.52-1,2.17-1.89.51-.69,1.51-1.14,2.11-1.87.51-.62,1.87-.46,2.26-1.13.52-.91,1.31-1.19,1.95-1.81.81-.8,1.39-1.39,2.42-1.97.57-.32.73-1.29,1.71-1.38.42-.04.61-.83.54-1.13s-.42-.5-.82-.66l-9.41-3.9c-3.15-1.31-1.76,1.43-5.19,4.2-.53.43-.53,1.52-1.38,1.69-.77.16-1.35-.52-1.6-.96-.31-.55-.14-1.31.03-1.92.38-1.35-.17-2.68.3-4.01.21-.59.3-1.38-.37-1.47-1.43-.18-1.35,1.96-2.29,2.53-2.41,1.44-1.46,3.49-3.28,3.08-1.98-.45-.94-6.25-.48-7.47.39-1.03-.39-1.63-1.19-1.95l-10.64-4.31c.55,1.16.03,2.08.1,2.95l.65,8.55.82,10.89c-.63.47-1.11,1.78-1.71,2.03-.98.42-1.52,1.44-2.31,1.95-1.19.77-2.33,1.06-3.27,2.19-.45.55-1.46,1.28-2.04,1.79l-2.08,1.83c-.45.39-3.36,1.37-4.18,3.37l11.75,4.94c.8-.85.84-1.95,1.61-2.6,3.26-2.77,1.73-4.3,4.21-3.95.47.07,1.08.44,1.08,1.21,0,.88-.99,1.61-.87,2.49.44,3.35-.91,4-.11,4.29.25.09,1.07.26,1.26-.05,1.53-2.49,1.17.29,3.55-4.91.33-.73,1.2-.56,1.8-.39,1.81.53.22,1.26.24,6,0,.78-.92,2.59.13,3.03l11.2,4.71c.63-1.17-.22-2.02-.07-3.06ZM364.28,256.12c5.54.63,6.93,5.53,8.44,10.17.48,1.47,2.37,7.8,4.18,7.79,4.15-.02,8.13.19,12.64-.12l-26.89-72c-.7-1.36-3.21-1.06-4.29-1.31-2.97-.7-5.73-.56-8.64-.06-1.55.27-3.11.09-4.39,1.32l-26.93,72.07,12.5.17c1.63.02,2.23-.64,3.21-1.7,2.36-2.55,3.99-5.6,6.54-8.04,4.66-4.46,10.88-7.14,17.17-8.26,2.22-.4,4.2-.29,6.46-.03ZM141.05,252.49c-8.31,3.74-14.97,10.47-18.49,18.89-.3.71-.48,1.41-.07,2.21l45.24-.09c4.67-1.7,8.54-2.49,11.76-6.21,7.06-8.14,6.28-21.52-2.05-26.11-3.11-1.71-9.95-3.03-9.85-4.55.04-.59.45-1.15,1.02-1.35l3.9-1.38c5.66-2,8.07-8.78,7.76-14.83s-3.2-10.55-7.97-13.82c-3.7-1.2-7.21-4.35-11.3-4.37l-39.31-.21.05,57.8c4.14-3.59,7.45-6.94,11.69-9.66,7.14-4.7,13.98-6.09,22.4-5.02,3.14.4,5.96,1.55,8.52,3.22,3.83,2.5,5.4,6.66,4.85,11.15-.98,7.88-15.03,10.39-20.4,5.95-.88-.73-2.18-2.14-1.93-3.4.83-1.15,2.89-1.76,4.35-1.78l10.64-.18c.54-5.23-5.22-7.14-9.22-7.99-3.46-.73-8.45.34-11.6,1.76ZM256.77,202.25c0-1.04-1.16-1.58-1.78-1.58l-10.9-.02c-1.04,0-1.86.56-1.86,1.7v47.97c-1.43,3.28-3.23,6.04-5.73,8.63-4.49,4.67-14.49,5.22-19.96,2.6-5.75-2.75-6.64-5.87-8.33-11.92l-.13-48.95h-12.97c-.99,0-1.41.7-1.57,1.67l.22,52.91c2.01,7.32,5.11,11.45,11.63,15.18,5.82,3.33,14.87,5.25,21.45,4.84,6.31-.39,12.47-1.72,17.94-5.02,8.01-4.83,8.7-9.84,12.02-18.11l-.03-49.89ZM275.69,258.8c-.2-2.52.08-4.77.33-7.17l.51-4.97.37-5.27c.13-1.85.34-3.53.49-5.35l.41-4.92.48-5.62.45-5.52.39-4.65c.17-2,.53-3.89.59-5.88l.09-3.08c.06-1.88.51-3.66.28-5.62-5.92-.37-9.91.63-15.82.33-.55.02-1.03.28-1.03,1v72.95s50.26.01,50.26.01c1.38,0,2.34-.75,2.57-2.07l-.13-24.8c-4.36,2.05-7.89,4.51-11.48,7.03-1.37.96-1.91,2.33-1.07,3.92.34,1.07,1.17,2.39.47,3.58-.34.57-1.62.38-2.19.14-4.15-1.76-4.52-3.6-7.89-2.81-7.28,1.71-10.46,3.67-18.07-1.22ZM49.75,241.89l-24.64,8.65.07,16.24,40-24.79-39.99-24.39-.07,17.93c2.8,1.01,5.57,1.17,8.49,1.53,5.31.94,10.37,2.3,15.46,3.93.39.21,1.1.39.66.9ZM444.31,241.58c4.67-2.05,9.23-2.96,13.94-4.03l10.82-1.97-.05-18-40.01,24.4,40.06,24.78v-16.25s-24.75-8.93-24.75-8.93ZM43,331.97c6.97-1.73,6.91-1.58,7.75-5.61l.58-2.82c.23-1.13.19-2.3.57-3.53,4.27,1.86,1.53,2.23,4.51,4.37.84.6,1.66,2.2,2.91,2.13,1.77-.1,3.48-1.16,5.09-1.6,1.23-.34.92-1.26.97-2.07.02-.41.48-10.01,1.94-7.38,1.33,2.4,3.11,2.75,4.26,4.88,1.29,2.39,2.09,1,7.06-.49.52-.16,1.79-.67,1.68-1.27-.43-2.34-1.9-5.86-3.31-7.41-.74-.81-2.19,0-3.05-.14-2.31-.37-3.56.83-5.56-.53-.72-.49-.25-1.41-.08-1.93.2-.63.97-.58,1.43-1.02,1.33-1.26,2.8-2.01,4.67-2.91-2.96-1.51-7.59.58-8.94-1.02-.25-.3-.51-1.31-.06-1.59.82-.5,1.3-1.18,1.98-1.75,1.3-1.1,4-1.41,3.67-3.16-.05-.24-.42-.6-.81-.47-1.63.53-5.48.11-6.16-.65-.39-.43-.76-1.44-.18-2,.86-.85,2.37-.89,3.17-1.78,1.94-2.15,2.91-1.44,3.34-2.77.15-.46-.1-1.33-.29-1.82l-2.2-5.51c-.3-.74-1.4-.32-2-.02-1.47.75-3.86.73-4.87,2.26-1.11,1.58-.44,8.18-2.03,9.45-.51.41-2.99-3.17-3.63-3.8-1.11-1.1-2.38-1.91-3.48-3.18l-5.8,1.93-.2,5.06c-.06,1.45-.21,2.8-.21,4.39,0,.55-1.4.33-1.83.14.48.22-5.99-6.32-6.72-6.37-.54-.03-.97.33-1.49.5l-4.69,1.5c-.42.13-.73.49-.68.84.04.3.52.42.64.74l2.05,5.62c.53,1.45,1.67,1.25,2.88,1.06,2.11-.32,4.26-.06,6.39-.09.65-.01.93.77.99,1.15s.09,1.05-.35,1.31l-2.96,1.73c-.99.57-1.61,1.51-2.8,1.87-.38.12-1.01,1.05-.6,1.19,1.63.55,3.39-.06,5.05-.04.87.01,1.66.38,2.6.17.7-.16,1.13.39,1.23.89.3,1.48-1.37,1-2.99,3.05-.56.71-1.37.91-2.2,1.28-.5.22-.58,1.7,0,1.79,1.39.2,2.8-.4,4.19-.31.8.05,1.45.09,2.27-.14.77-.21,1.22.57,1.27,1.15.04.48-.16,1.05-.75,1.32-.64.3-.91.93-1.42,1.33-1.08.85-2.46,1.24-3.47,2.09l-2.27,1.92,2.97,8.09ZM449.56,322.18c.89.32,1.57-.95,1.73-1.57l.76-2.95c.35-1.37.17-2.87,1.31-3.83,1.17.66,1.49,1.91,2.26,2.87.82,1.03,2.8,3.34,4.11,2.45,2.85-1.92-2.41-6.56-1.25-7.7s6.36,1.68,7.59,1.09c2.87-1.38-1.74-4.93-3.32-5.83-.59-.34-1.53-1.73-.74-2.12,1.04-.52,5.56-.21,7.29-2.26,1.11-1.3-4.5-3.86-7.22-2.65-.93-.89-.21-2.57.87-3.12,1.31-.66,1.86-1.93,2.67-2.95.44-.56,1.31-.68.93-1.46-.3-.62-.79-1.09-1.6-.69-.52.26-1.15-.22-1.64-.06-2.55.82-4.82,3.1-5.38,2.16-.8-1.36.23-2.78.73-4.05.3-.76,1.76-5.75-.03-5.21-2.66.81-4.03,4.14-5.63,5.04-.79.44-1.02-1.01-1.25-1.44-1-1.87.02-3.57-2.68-5.83-2.51.64-2.2,7.87-3.81,8.6-1.45-1.72-2.13-3.61-3.67-4.88-.73-.6-2.18-1.38-2.84-.4-1.41,2.1,1.48,5.62,2.1,7.88-2.19,1.13-5.15-1.91-8.3-1.33-.43.08-.78.22-.86.54-.2.83,1.45,2.87,1.44,2.86,1.07.61,4.94,3.46,3.51,4.37s-5.77-.06-7.3,2.55c-.52.89.73,1.51,1.31,1.73,3.22,1.26,6.15.53,7.4,1.69.83.77-2.74,1.56-5.41,5.2-.46.63-.93,1.04-.35,1.68.45.49.96.47,1.66.24.61-.2,1.3.35,1.95.06,1.46-.63,2.8-1.87,4.4-1.99,2.22-.17-.32,5.26-.43,5.98l-.47,2.88c2.26,1.03,6.06-4.43,6.18-5.51.04-.35.54-.64.76-.58,1.43.43.43,3.21,1.82,6.48.26.61.69,1.8,1.38,2.05ZM181.07,324.8v-33.46s-7.94,0-7.94,0v33.47s7.94,0,7.94,0ZM211.21,324.09c2.16.08,3.7.19,5.63-.08v-32.24s-6.03.02-6.03.02c-3.79,4.79-6.09,10.61-10,15.52l-9.18-14.42c-1.6-2.51-3.15-1.44-6.53-1.1l.02,32.32h5.62s.16-20.55.16-20.55l10.08,13.66,10.05-14.65.19,21.5ZM282.63,315.78c-2.83-3.65-3.21-8.51-1.78-12.71,1.8-5.27,7.26-7.5,12.31-5.36,3.28,1.39,2.15,3.99,3.66,3.78,1.85-.26,3.54-1.1,4.9-2.39-1.29-2.89-3.39-5.13-6.23-6.44-7.38-3.41-16.45-.31-19.76,7.24s-1.92,19.54,6.77,23.31c5.27,2.28,11.28,1.58,15.71-1.95,1.65-1.32,2.77-3,3.19-5-2.08-.77-4.45-2.88-5.68-.98-1.44,2.23-3.79,3.62-6.24,3.74-2.61.13-5.11-.95-6.87-3.23ZM243.21,310.19c2.58-2.43,3.59-6.03,3.25-9.59-.4-4.2-3.56-7.3-7.59-8.38-4.71-1.27-10.74,0-15.96-.35l-.2,9.68-.19,22.39c2.05.66,4.03.47,6-.21l.08-10.23c4.53-.62,10.74.33,14.6-3.3ZM265.27,316.89l1.93,4.99c.26.66.66,1.98,1.35,2.19,1.94.14,3.76.23,5.66-.11-2.99-11.5-8.69-20.63-12.03-31.69-2.27-.78-4.44-.77-6.58,0l-11.77,30.61c-.17.45.11.96.3,1.11.28.22,4.55.36,5.37-.08,1.58-.84,1.41-5.72,3.06-7.05,4.24-.4,8.44-.22,12.7.03ZM318.32,323.92l.06-27,8.74-.05c.15-1.79.16-3.38,0-5.13l-23.45.02c-.51,1.72-.61,3.34-.11,5.04l8.89.23.07,27.07c2.12,0,3.89.29,5.82-.19ZM430.35,376.25c.09-1,.58-1.55.74-2.4l.81-4.45c.05-.27,1.23-7.02,1.24-6.43-.14-4.51,4.61-3.36,9.65-6.62.77-.5,6.23-2.47,5.9-2.33l2.67-1.22c.38-.18.65-.63.69-.89.08-.49-.42-.54-.78-.82l-8.27-6.33c-.43-.33-1.24-1.39-1.86-.87-1.09.93-2.25,1.64-3.44,2.45.19-.13-3.8,3.66-3.96,1.55-.03-.39.12-.71.42-1.09,1.45-1.77,2.04-3.96,2.71-6.15-3.44-1.97-6.94,4.71-8.37,3.56-.32-.26-.6-1.03-.24-1.36,1.28-1.16,1.34-2.65,1.8-4.15.22-.71,1.05-1.2.96-2.01-.08-.64-.54-1.21-1.2-1.73-1.96-1.55-3.85-3.12-5.99-4.55-1-.67-2.19-.81-3.47-2.01l-.64,3.07c-.89,4.3-.9,7.97-1.57,11.75l-.78,4.43c-.35,1.98-1.78,2.61-3.46,3.18,1.07-.36-4.5,2.2-4.33,2.13-.87.39-1.54,1.18-2.64.99-1.24-.21-1.88.94-2.72,1.18-1.05.31-1.62.87-2.54,1.27l-2.34,1.02c-.55.24-2.43.83-1.66,1.57,2.61,2.52,5.83,4.31,8.56,6.68,2.49,2.15,2.54-.94,6.13-2.83.65-.34,1.21-1.47,2.24-1.07s1.14,2.08.5,2.92c-.83,1.08-.77,2.08-1.05,3.35-.11.51-1.3,1.18-.57,1.9.47.46,1.4-.04,1.69-.52.58-.95,1.37-1.12,2.3-1.48.87-.34,1.2-1.58,2.12-1.87.83-.26,1.25.53,1.54.97.65.99-1.66,5.83-2.02,6.31-.6.8-.12,1.88.62,2.44l9.1,6.89c.07-4.77.95-.24,1.5-6.42ZM84.32,384.22c-.69-1.87-1.04-3.16-1.27-4.76-.15-1.07-1.04-2.06-.94-3.06.06-.63.88-1.03,1.28-1.07.95-.08.94,1.57,3.8,3.78.55.43.97,1.92,1.86,1.7,1.24-.32.45-2,.51-2.79l.1-1.43c.02-.35-2.14-3.33-1.18-4.26.45-.44,1.38-.8,1.86-.11.68.97,1.09,2.19,2.2,2.74,2.24,1.1,2.01,3.42,4.06,2.21l10.43-6.14c-1.51-1.54-3.09-2.42-4.7-3.38l-4.07-2.41-3.97-2.24c-1.11-.63-2.17-1.66-3.26-2.22-1.76-.91-2.34-2.18-2.07-4.09-.05.33-.42-5.66-.33-5.21-.28-1.46.12-2.43.33-3.86-.11.73-.32-6.45-.27-5.86l-.27-3.31c-.05-.56-.71-.68-1.01-.63s-.64.2-1,.41l-9.32,5.51c-1.74,1.03.37,2.15.69,5.71.08.88.63,1.6.52,2.63-.97.65-2.48.37-3.01-.79-.47-1.03-1.38-1.25-2.25-1.86-.52-.37-1.03-1.97-1.87-1.69-1.37.87-.11,2.56.13,3.69s.07,2.15.75,3.18c.26.39.02,1.2-.29,1.33s-1.09.33-1.48,0c-1.45-1.24-2.83-2.46-4.18-3.86-.52-.54-1.1-1.47-2.09-.9l-10.38,6c-.13.87,1.13.95,1.42,1.28.81.95,1.81,1.55,2.8,2.21l9.29,6.21c3.26,2.18,6.13,2.87,5.41,7.47-.14.91.18,1.93-.21,3.05-.48,1.38.45,3.23.22,4.69-.17,1.08.08,2.02.07,3.07,0,.05-.91,4.51.21,5.65l11.51-6.63ZM379.9,428.49c1.71-2.75,4.69-3.81,5.51-6.05.5-1.37-1.35-2.48-1.57-3.52-.32-1.51-.94-2.4-1.7-3.69-.55-.93,1.41-2.69,2.23-2.19,1.65,1,2.96,2.24,4.75,3,.68.29.99,1.54,2.07.87-.79-.69-.55-2.02-1.02-2.6-.91-1.12-1.17-2.13-1.6-3.42-.32-.96-1.11-1.52-.02-2.32,1.73-1.26,1.17.49,4,1.25,1.47.4,2.2,2.35,3.13,1.59,1.16-.95-1.11-2.66-1.41-3.86-.23-.91-.4-1.56-.96-2.3s.36-1.54.81-1.84c.81-.54,3.98,1.3,4.94,2.32.75.79,1.68,1.07,2.56,1.55.8.43,1.51,1.09,2.35.2,1.72-1.82,3.46-3.4,5.56-5.21-1.43-1.53-2.54-3.16-4.1-4.5-1.33-1.15-3.53-.22-5.07.14l-5.42,1.27c-.51-1.76.45-3.04,1.3-4.3.75-1.1,1.08-2.5,1.63-3.69,1.04-2.27-2.11-3.47-3.76-6.03-2.34.62-7.57,2.72-9.44,2.49-.56-.56.29-1.46.51-1.97l1-2.36c.4-.95.4-1.8,1.27-2.55.34-.29.75-.84.74-1.21-.03-1.48-3.8-4.7-5.25-6.2-1.49,1.02-3.09,2.02-3.9,3.55-.48.91-1.22,1.53-1.76,2.32-.71,1.03.75,2.08,1.05,2.87.41,1.09.57,1.92,1.31,2.87-.07-.08,1.46,3.11-.64,3.67-1.5.4-1.52-.78-4.2-1.79-.55-.21-1.18-1.71-1.88-1.08-1.48,1.62,4.67,6.41.82,7.9-1.1.43-5.53-2.67-5.9-3.17-.29-.41-.95-.25-1.18.06-.15.21-.21.7.08.98.89.88.93,2.02,1.38,3.07.41.97.88,1.67.31,2.7-.35.62-1.46,1.29-2.37.88-.97-.45-1.44-1.81-2.44-2.14-3.44-1.14-1.88-1.56-3.78-1.95-.87-.18-5,4.37-6.12,5.46,3.93,3.54,3.22,5.59,7.01,4.5l3.95-1.14c1.38-.4,2.92-1.16,4.18-.07-1.17,1.86-4.68,8.08-3.97,9.5,1.08,1.51,2.56,2.94,3.95,4.05.75.6,1.67-.9,2.27-1.06,2.67-.73,4.58-.97,6.35-2.54.99.22.96,1.94.52,2.76-.9,1.71-1.27,3.43-2.03,5.22-.32.75-1.1,2.02-.59,2.82,1.2,1.89,2.92,3.23,4.51,4.95ZM123.65,424.71c.43-1.72-.69-3.73-.17-5.21.39-1.14,2.5-.27,3.03.51.88,1.3,4.77,4.94,5.31,3.5.59-1.59-.22-2.86-1.11-3.84-.51-.56-.17-1.59-.78-2.11s-1.31-1.99-.6-2.46c1.11.33,2.44.13,3.49.36,1.29.29,2.24.95,3.77.5.42-.12,1.07.04,1.22-.46.53-1.83-6.27-5.51-6.23-6.25.11-2.06,4.02-.43,6.68-2.74.4-.35.84-.54.83-.97-.02-1.1.54-.71-2.61-1.66-1.69-.51-3.47.25-5.2.17-.81-.04-.64-1.25-.56-1.8s.82-.63,1.25-1.11l2.33-2.63c.75-.84,1.27-1.92,1.03-2.97-1.94-.48-3.17.66-4.59,1.46-.82.46-1.83.61-2.62,1.13-.85.56-1.61-.06-1.92-.78s.34-.92.57-1.7l.72-2.43c.3-1,.14-2.6-.39-3.49-.87-1.47-3.8,3.24-4.2,3.95-.48.87-.87,2.87-2.16,2.95-1.91-1.09-.28-3.66-2.48-6.09-.6-.66-.34-2.53-1.65-2.18-.6.16-1.27,4.02-1.33,2.93l.28,4.93c.07,1.33-2.12.79-2.82.18-1.47-1.3-3.64-3.13-5.51-4.16-1.11,4.06,2.85,6.42,3.04,8.19.29,2.67-6.13-1.49-9.17-.07-.42.2.02,1.18.28,1.44,2.45,2.43,7.24,4.39,5.84,5.55-.91.76-2.42.46-3.49.93-2.28,1.01-3.91,1.3-3.82,2.51.05.73.61.73,1.21.96,3.7,1.41,3.69-.59,6.58.46,1.79,1.64-5.97,6.83-3.79,8.15,1.11.68,2.4-.37,3.36-.7,1.27-.44,2.24-.86,3.24-1.79.71-.66,1.82-.38,2.25.22.67.95-.29,1.45-.54,2.3l-.71,2.45c-.34,1.17.16,2.42.36,3.74,5.55-3.46,4.34-5.67,4.71-6.19.47-.67,2.06-.62,2.3.13l1.21,3.86c.31.99,1.37,1.72,1.38,2.9.02.37,1.56.29,1.47-.07-.31-1.1.53-1.66.73-2.48ZM317.66,460.6c2.49-3.22.34-6.55,1.58-8.09.19-.24,1.01-.54,1.18-.12.62,1.56,4.37,4.45,6.45,4.1.07-2.31-.42-4.59-1.97-6.32-.31-.35-1.35-.65-1.07-1.36.43-1.1,2.11-1.16,3.1-.73,1.29.56,2.31.29,3.62.14.45-.05,1.18.42,1.57.11.28-.22.89-.79.49-1.28-.51-.63-1.02-1.48-1.65-1.99-1.78-1.42-5.06-1.57-5.02-2.64.05-1.56,3.7-2.1,3.94-2.21l2.88-1.39c.68-.33,1.36-1.26.71-1.86-2.63-2.41-9.42,1.29-6.95-3.32.59-1.1,3.36-3.04,2.76-5.47-.31-1.26-4.74.8-5.46,1.16-1.09.56-2.05,1.47-3.51,1.11l1.51-5.3c.23-.82-.25-1.83-.61-2.58-.25-.52-1.52-.7-1.74-.19-.37.84-1.33,1.06-1.67,1.75l-1.75,3.56c-.18.37-.4.92-.8.95-1.44.1-1.35-3.73-3.5-6.88-.26-.38-1.26-1.12-1.61-.6-2.05,2.98-.4,3.91-1.13,6.64-.15.55-.26,2.01-1.27,1.69-1.31-.41-1.97-2.03-3-2.82-.83-.64-2.21-1.32-3.22-1.31-2.33.03.35,4.78.96,5.72s1.61,1.9,1.73,3.21c-.09.42-1.22.33-1.66.15-1.72-.69-7.71-2.43-7.55.22.02.4.54.51.83.87l1.25,1.54,4.19,2.07c.87.43-.04,1.61-.7,1.94-3.31,1.66-3.72,1.2-6.47,3.15-.15.46.54,1.14,1.01,1.28,4.36,1.37,7.59-.45,7.92.37.58,1.46-2.36,2.4-3.83,5.27-.33.66-.84,1.62-.92,2.33-.1.81,1.47.98,2.07.73,1.3-.55,2.43-1.03,3.65-1.7.91-.5,2.06-1.64,3.15-1.02.5.41-.06,1.55-.26,2.05-.78,1.98-1.55,5.88.69,6.32.57.11.95-.31,1.42-.76,2.06-1.96,1.77-5.06,3.22-5.28s1.97,3.64,3.61,6.05c.3.44,1.4,1.29,1.84.73ZM348.97,425.65c-.36,1.67.76,2.92,1.72,3.48,1.29.75,2.69.3,3.63-.54s1.46-2.17.8-3.48c-.34-.68-.98-1.5-1.73-1.83-1.69-.74-4,.42-4.42,2.37ZM202.61,471.14l8.16,1.2c1.27-6.57,1.56-6.01-1.37-8.47l-3.47-2.92c-.63-.53-1.26-1.01-2.14-1.38.8-1.83,2.31-2.04,4.1-2.15,1.69-.11,4.16-.91,5.4-1.8.85-1.83.59-3.9,1.08-5.77-1.27-.3-1.82-.99-2.64-1.57l-1.83-1.28c-.31-.22-4.57-2.99-3.49-3.33,1.55-.68,3.4-.73,4.89-1.62,1.59-.94,4.14.57,4.52-1.75.33-2.04.61-3.94.78-6.22-2.38-.58-6.19-.4-7.89-.77-1.09-.24-.26,1.43-2.22,3.6-.54.6-.09,1.82-.74,2.41-.48.44-1.21,1.22-1.78,1.45-1.39.57-2.36-.87-2.75-2.1-.43-1.35.06-2.67-.25-4.22-2.66.89-.55,1.9-3.31,4.86-.48.51-2.07.85-2.7.19-1.66-1.73-.73-8.66-2.04-7.09-.08.1-.38.38-.34.6.25,1.26-.98,1.85-1.42,2.74-.52,1.07-.99,1.89-2.16,2.1-.67.12-2-.51-2.29-1.36-.31-.9.56-2.16.02-3.19-1.24-2.37.33-4.51-1.77-4.81s-4.2-.68-6.51-.81c.16,3.22-1.24,5.28-.48,7.01.17.38,1.11.36,1.33.73.59.99,1.36,1.09,2.17,1.63,2.86,1.94,1.8,1.21,3.82,3.2,1.04,1.02-2.77,2.2-3.8,1.98-.95-.2-1.61.41-2.4.65-1.29.38-2.59.55-3.78,1.25l-.74,5.62,2.53.97c.37.14,3.11,3.14,5.34,3.1.54,0,.69.9.57,1.25-.1.28-.25.91-.71,1.06l-9.08,2.94c-.58,2.13-.87,4.15-1,6.34l6.8,1c2.31.34,1.99-3.51,2.76-3.98,2.12-1.31.16-3.5,3.06-3.94.91-.14,2.09.58,2.21,1.69l.66,6.18c1.63-.46,1.49-1.98,2.12-3.17.5-.94,1.31-1.54,1.64-2.71.25-.89,2.47-.65,2.54.14l.21,2.36c.1,1.09.72,1.95.54,3.16-.06.42.26.8.58.9.99.32,1.21-2.5,1.65-3.11s1.04-.9,1.09-1.78c.02-.45.26-.94.52-1.09.54-.32,2.23.11,2.53.46.24.29.04.82.22,1.09.64.97.48,1.84.6,2.9l.67,5.6ZM153.54,434.59c-.02-1.93-2.43-3.15-3.89-2.61-1.74.64-2.86,2.62-1.83,4.22.85,1.31,2.22,2.11,3.64,1.61,1.07-.37,2.1-1.52,2.08-3.23ZM238.13,475.13c.03.9,1.25-.22,1.67-.36,2.34-.79,3.08-1.44,5.47-2.75.72-.39,1.4-.64,2.11-1.04l8-4.47c2.3-1.28,4.42-1.76,6.62.11.44.38,1.68.08,2.06.97.45,1.04,1.63,1.13,2.46,1.53l2.53,1.23c.94.45,1.36,1.12,2.53,1.25.77.08,1.3,1.32,2.1,1.49,1.04.22,1.63.71,2.91,1.31.12-3.55.28-6.89-.06-10.34l-.32-3.27-2.23-.32c-1.71-.24-3.26-1.02-5.07-1.15-.6-.04-.75-.75-.88-1.16-.1-.32-.01-1.03.46-1.1l3.03-.41c1.35-.18,2.69-.8,3.97-1.39.7-.41-.47-1.9-1.28-1.8-.86.11-1.29-.63-1.96-.8-1.34-.34-2.82-.02-4.03-.71-.47-.27-.36-1.29-.19-1.68.5-1.22,1.96.43,4.81-1.6.56-.4,1.54-.02,2.13-.35,1.14-.64.91-1.92.88-3.03l-.28-10.05c-.03-.91-1.39-.24-1.84.04-1.81,1.16-4.13,1.8-5.75,3.27-.76.7-1.65.82-2.43,1.33-1.45.95-2.56,2.03-4.23,2.64-.95.34-3.26,2.19-4.67,2.31-.9.08-1.3-.76-2.17-1.02-1.06-.31-4.18-1.75-4.99-2.26-.77-.49-1.85-.44-2.36-1.38-.55-.99-3.69-1.57-4.85-2.57-.77-.67-1.77-.89-2.62-1.13-.64-.18-2.24-1.52-2.48-.27-.61,3.28.23,10.58.12,11.66-.25,2.3,2.57,1.11,6.12,2.61.51.22,1.72.08,1.81.89.11,1.01-1.09,1.99-2.06,1.99-1.15,0-1.79.63-2.68,1.1-.78.41-1.92.03-2.66.8.72,1.69,2.38,1.41,3.81,1.72.81.17,1.36,1.19,2.54.78.44-.15,1.1.2,1.2.52.63,2.13-3.45,2.69-3.65,2.77-1.02.45-1.99.7-3.07,1-1.22.34-.91,2.3-.87,3.29l.36,9.79Z"/> <path class="cls-2" d="M141.05,252.49c3.15-1.42,8.13-2.49,11.6-1.76,4.01.85,9.76,2.76,9.22,7.99l-10.64.18c-1.47.02-3.52.63-4.35,1.78-.25,1.26,1.05,2.68,1.93,3.4,5.36,4.44,19.42,1.93,20.4-5.95.56-4.49-1.02-8.65-4.85-11.15-2.56-1.67-5.37-2.82-8.52-3.22-8.42-1.07-15.26.33-22.4,5.02-4.24,2.72-7.55,6.07-11.69,9.66l-.05-57.8,39.31.21c4.08.02,7.59,3.18,11.3,4.37,4.77,3.27,7.67,8.04,7.97,13.82s-2.1,12.83-7.76,14.83l-3.9,1.38c-.57.2-.98.76-1.02,1.35-.1,1.52,6.74,2.84,9.85,4.55,8.33,4.59,9.11,17.96,2.05,26.11-3.22,3.72-7.08,4.5-11.76,6.21l-45.24.09c-.41-.8-.23-1.51.07-2.21,3.52-8.41,10.18-15.14,18.49-18.89ZM160.26,231.1c6.41-2.75,6.86-9.11,4.48-14.9-1.9-2.49-4.71-4.78-8.06-4.78h-21.23s.01,23.17.01,23.17c1.69-.28,3.08-.2,4.53-.75,1.78.22,3.45-.33,5.21-.43,4.96-.29,10.37-.29,15.07-2.3Z"/> <path class="cls-2" d="M256.77,202.25l.03,49.89c-3.32,8.28-4.01,13.29-12.02,18.11-5.46,3.3-11.63,4.63-17.94,5.02-6.58.41-15.63-1.51-21.45-4.84-6.52-3.73-9.62-7.86-11.63-15.18l-.22-52.91c.16-.97.58-1.68,1.57-1.68h12.97s.13,48.96.13,48.96c1.69,6.05,2.59,9.17,8.33,11.92,5.48,2.62,15.47,2.07,19.96-2.6,2.5-2.59,4.3-5.35,5.73-8.63v-47.97c0-1.13.81-1.7,1.85-1.7l10.9.02c.62,0,1.78.54,1.78,1.58Z"/> <path class="cls-2" d="M364.28,256.12c-2.26-.26-4.23-.36-6.46.03-6.29,1.12-12.51,3.8-17.17,8.26-2.55,2.45-4.18,5.49-6.54,8.04-.98,1.06-1.58,1.72-3.21,1.7l-12.5-.17,26.93-72.07c1.27-1.23,2.84-1.05,4.39-1.32,2.91-.51,5.68-.64,8.64.06,1.08.25,3.59-.05,4.29,1.31l26.89,72c-4.51.32-8.49.1-12.64.12-1.81,0-3.7-6.32-4.18-7.79-1.51-4.64-2.89-9.54-8.44-10.17ZM360.17,245.97c1.46-.17,2.7.25,4.03-.32l-9.03-26.98c-1.28-.22-2.43.74-2.89,1.95l-11.99,31.98c2.93-.45,5.11-1.74,7.56-2.73,3.99-1.62,7.81-3.38,12.32-3.9Z"/> <path class="cls-2" d="M275.69,258.8c7.61,4.89,10.79,2.94,18.07,1.22,3.37-.79,3.74,1.05,7.89,2.81.57.24,1.85.44,2.19-.14.71-1.19-.13-2.51-.47-3.58-.84-1.6-.31-2.96,1.07-3.92,3.59-2.51,7.11-4.98,11.48-7.03l.13,24.8c-.22,1.32-1.19,2.07-2.57,2.07h-50.26s0-72.96,0-72.96c0-.72.49-.98,1.03-1,5.92.3,9.9-.71,15.82-.33.23,1.96-.23,3.75-.28,5.62l-.09,3.08c-.06,1.99-.42,3.89-.59,5.88l-.39,4.65-.45,5.52-.48,5.62-.41,4.92c-.15,1.82-.36,3.5-.49,5.35l-.37,5.27-.51,4.97c-.25,2.4-.53,4.65-.33,7.17Z"/> <path class="cls-1" d="M43,331.97l-2.97-8.09,2.27-1.92c1.01-.85,2.39-1.24,3.47-2.09.51-.4.78-1.03,1.42-1.33.59-.28.79-.84.75-1.32-.05-.58-.5-1.36-1.27-1.15-.82.23-1.47.19-2.27.14-1.39-.09-2.8.51-4.19.31-.57-.08-.49-1.56,0-1.79.83-.38,1.64-.57,2.2-1.28,1.62-2.05,3.29-1.57,2.99-3.05-.1-.5-.54-1.05-1.23-.89-.93.21-1.73-.15-2.6-.17-1.66-.02-3.41.59-5.05.04-.41-.14.22-1.07.6-1.19,1.19-.36,1.81-1.3,2.8-1.87l2.96-1.73c.44-.26.4-.94.35-1.31s-.34-1.16-.99-1.15c-2.13.04-4.28-.23-6.39.09-1.22.19-2.36.38-2.88-1.06l-2.05-5.62c-.11-.32-.59-.44-.64-.74-.05-.35.26-.7.68-.84l4.69-1.5c.52-.17.95-.53,1.49-.5.73.04,7.2,6.58,6.72,6.37.43.19,1.83.41,1.83-.14,0-1.59.15-2.94.21-4.39l.2-5.06,5.8-1.93c1.1,1.28,2.37,2.09,3.48,3.18.63.63,3.12,4.21,3.63,3.8,1.59-1.27.92-7.87,2.03-9.45,1.01-1.53,3.39-1.51,4.87-2.26.6-.3,1.71-.72,2,.02l2.2,5.51c.2.49.45,1.36.29,1.82-.43,1.33-1.4.62-3.34,2.77-.8.88-2.3.93-3.17,1.78-.58.57-.2,1.57.18,2,.68.76,4.52,1.19,6.16.65.39-.13.77.24.81.47.34,1.75-2.37,2.06-3.67,3.16-.68.58-1.16,1.25-1.98,1.75-.46.28-.19,1.29.06,1.59,1.36,1.6,5.98-.49,8.94,1.02-1.87.9-3.34,1.65-4.67,2.91-.46.43-1.23.39-1.43,1.02-.17.52-.65,1.44.08,1.93,2,1.37,3.25.16,5.56.53.86.14,2.32-.67,3.05.14,1.41,1.55,2.88,5.07,3.31,7.41.11.6-1.16,1.12-1.68,1.27-4.97,1.48-5.78,2.88-7.06.49-1.14-2.13-2.93-2.48-4.26-4.88-1.45-2.62-1.91,6.98-1.94,7.38-.05.82.27,1.74-.97,2.07-1.61.44-3.31,1.49-5.09,1.6-1.24.07-2.07-1.53-2.91-2.13-2.98-2.14-.24-2.51-4.51-4.37-.38,1.24-.34,2.4-.57,3.53l-.58,2.82c-.83,4.03-.78,3.88-7.75,5.61ZM58.21,311.73l2.85-5.96c1.22-2.54-3.4-3.52-4.47-4.37-.66-.52-2.3-1.77-3.13-.79-1.57,1.85-2.09,4.43-3.53,6.4-.29.39-.58.71-.49,1.16.06.28.29.55.66.74l5.47,2.91c.51.27.73,1.06,1.38.79.31-.13.99-.3,1.27-.88Z"/> <path class="cls-1" d="M195.45,57.54c-.53.53-1.25.72-1.78,1.36-.86,1.04-6.15,5.24-6.69,5.12-.28-.06-.52-.42-.6-.82l-2.11-10.94c-.39-2.02,1.2-1.15,4-3.36.92-.72,2.32-.4,3.22-1.23.37-.34-.02-1.62-.51-1.79-1.32-.46-2.82.52-3.94.12l-1.55-.56c-.98-.35-2.2-.35-2.44-1.45.7-.66,1.54-.75,2.28-1.17,3.82-2.2,4.92-1.29,4.9-2.84-.03-1.83-1.73-.62-5.66-1.37-.99-.19-1.93.17-2.98-.18l-2.48-12.75c-.06-.32.5-.37.66-.44.21-.09.65.62.89.56,1.53-.39,2.62.96,3.78,1.34.91.29,1.63.39,2.71.72l3.07.95c.96.3,2.03.03,2.71,1.21.33.58,1.67-.08,2.12.29,1.53,1.22,3.56,1.29,5.15.07,1.18-.91,2.35-1.8,3.54-2.73l4.14-3.24,4.34-3.38c.5-.39,4.32-2.98,4.43-2.94.35.12.68.48.69,1.03.09,3.84,3.55,12.2.8,12.38-1.11.08-1.59.9-2.41,1.31-1.11.56-2.51.61-3.12,1.88-.21.44-.28,1.07-.03,1.44.2.29.93.43,1.34.25,1.06-.46,1.71.22,2.65.29l2.88.19c.45.03.77.61.78.95.03,1.12-1.12.19-3.55,2.19-.38.31-3.54,1.06-2.95,2.71.17.48.87.75,1.52.8l4.23.3c.51.04,1.21-.34,1.68-.17.4.15.99.56,1.09,1.27.56,3.87,1.85,7.69,2.05,11.53.07,1.31-1.91.42-2.63.28-.88-.17-1.76-.39-2.59-.84,1.53.84-8.93-2.77-6.13-2.3l-1.81-.31c-.89-.15-1.69-.67-2.6-.89l-2.45-.6c-1.89-.46-3.03-.64-4.48.47-2.14,1.65-4.22,3.31-6.19,5.24ZM205.53,41.27c.88-.59-.59-2.14-1.48-2.01-1.19,0-6.82.9-5.7,2.81.91,1.56,6.39-.28,7.18-.8Z"/> <path class="cls-1" d="M84.32,384.22l-11.51,6.63c-1.11-1.14-.21-5.6-.21-5.65,0-1.05-.24-1.99-.07-3.07.24-1.46-.7-3.31-.22-4.69.39-1.12.07-2.13.21-3.05.73-4.61-2.15-5.3-5.41-7.47l-9.29-6.21c-.99-.66-1.99-1.26-2.8-2.21-.28-.33-1.55-.41-1.42-1.28l10.38-6c1-.58,1.57.35,2.09.9,1.35,1.4,2.73,2.62,4.18,3.86.39.33,1.17.13,1.48,0s.55-.94.29-1.33c-.68-1.03-.5-2.04-.75-3.18s-1.5-2.82-.13-3.69c.84-.27,1.35,1.33,1.87,1.69.87.62,1.78.84,2.25,1.86.53,1.16,2.04,1.44,3.01.79.11-1.03-.44-1.76-.52-2.63-.32-3.57-2.43-4.68-.69-5.71l9.32-5.51c.36-.21.69-.36,1-.41s.96.07,1.01.63l.27,3.31c-.05-.59.16,6.58.27,5.86-.21,1.43-.61,2.4-.33,3.86-.08-.44.28,5.55.33,5.21-.27,1.9.3,3.18,2.07,4.09,1.09.56,2.15,1.59,3.26,2.22l3.97,2.24,4.07,2.41c1.61.96,3.19,1.84,4.7,3.38l-10.43,6.14c-2.05,1.21-1.82-1.11-4.06-2.21-1.11-.55-1.52-1.77-2.2-2.74-.49-.69-1.41-.33-1.86.11-.96.93,1.21,3.91,1.18,4.26l-.1,1.43c-.06.79.73,2.47-.51,2.79-.89.23-1.3-1.27-1.86-1.7-2.87-2.21-2.85-3.87-3.8-3.78-.4.04-1.22.44-1.28,1.07-.1,1,.79,2,.94,3.06.23,1.6.58,2.88,1.27,4.76ZM79.07,360.49c-.9-.26-1.32.99-1.22,1.8.24,2,2.78,5.59,3.91,5.26,2.91-.86-2.52-7.01-2.69-7.05Z"/> <path class="cls-1" d="M283.88,54.25c0,.49.21.92.06,1.11-.14.17-.42.6-.82.59-2.3-.09-4.7.28-6.91-.12-1.28-.23-.78-2.1-1.23-2.79-.91-1.39-1.09-2.78-1.18-4.47-.05-1.02-1.73-1.03-2.38-.84-1.05.3-1.16,1.2-1.56,2.18s-1.11,1.77-.95,3c.05.39-.26.79-.55.89-1.38.48-1.07-3.02-1.92-4.6-.4-.74-.65-1.4-.98-2.19-.24-.58-1.82-.53-2.17-.08-.41.54-1,1.1-1.12,1.7-.09.47-.56,5.06-1.77,4.55-1.13-.48-1.09-7.1-3.54-6.34-1.78.56-2.08,2.92-2.38,4.42-.19.94-1.12,1.4-.84,2.6.18.78-.7,1.55-1.46,1.47-1.22-.13-7.69,2.11-7.72-.56l-.05-5.91c0-.93.57-1.59,1.5-1.57,1.2.02,1.93-.59,2.87-1.11,1.06-.58,4.26-1.66,3.97-2.22-.69-1.29-2.56-1.55-3.66-2.23-3.16-1.98-5.22-1.57-4.96-3.38.23-1.6-.35-3.35.19-4.82.44-1.19,2.19-1.48,3.15-2.01.68-.38,1.03-1,1.9-.92,1.59.13,3.22-.78,3.47-2.46-2.68-1.12-3.64-1.75-5.79-2.99-3.88-2.23-2.89-2.05-2.82-8.71l8.77-.09c.89,1.93,1.88,9.17,3.49,9.48.48.09,1.71.19,1.79-.56.1-1.1.21-1.75.83-2.63s.13-3.58,1.3-3.77c1.32-.22.83,2.34,1.51,3.22,1.51,1.94.14,3.33,1.89,3.57.62.08,1.63-.17,1.59-1.02-.04-.89.6-1.31.84-1.99.55-1.62.52-3.38,1.69-4.89.8.72.41,1.73.81,2.46,2.03,3.76.05,5.11,2.64,5.63.74.15,2.14-.29,2.14-1.47s.35-1.95.79-2.96c.64-1.46.43-4.34,2.39-4.38l5.76-.12c.38,0,.76-.37,1.11-.19.81.41.53,6.11.31,6.9-.3,1.09-2.03,1.25-2.81,1.76-.48.31-4.42,2.33-4.84,2.38-.82.09-1.51,1.56-1.02,2.12,1.18-.16,5.75,2.01,6.29,2.45s2.16-.06,2.52.77l.27,5.3c.1,2.05-7.72,3.88-9.48,5.16-.34.97,6.66,4.11,6.95,4.22,1.04.41,2.01.73,2.03,2.1l.06,4.4ZM270.29,35.7l-4.03-4.05c-.43-.43-1.14-1.84-1.94-1.35-1.83,1.12-2.99,3.04-4.67,4.34-.46.35-1.16.38-1.23.83-.08.52-.26,1.25.18,1.68l4.71,4.61c.97.95,2.61.22,3.35-.68,2.19-2.68,5.36-3.64,3.63-5.37Z"/> <path class="cls-1" d="M390.92,122.34c.03-1.15-.75-1.73-.93-2.52-.22-1.02-.27-1.92-.56-2.93-1.67-5.77-.17-2.6-1.35-6.98-.45-1.69-1.18-3.32-1.51-5.01s-1.24-2.7-2.99-3.36l-4.63-1.77c-1.1-.42-2.17-.55-3.23-.9-2.63-.89-5.3-1.6-7.91-2.93-.29-.15-.95,0-1.12-.21-.19-.23-.78-.8-.37-1.18l8.38-7.71c.53-.49,1.17-.42,1.82-.42.48,0,.76.95,1.24,1.12,4.79,1.61,4.34,4.86,5.97,2.11.86-1.45-1.64-1.6-2.49-5.28-.2-.85-1-2.11.03-2.81.59-.4,1.28.78,1.81.99,4.21,1.69,4.28,4.86,5.94,2.31.49-.76-.45-1.17-.79-1.84l-2.28-4.53c-.22-.44-.57-.77-.5-1.25.05-.3.33-.7.71-1,2.17-1.69,4.01-3.58,6.07-5.38l3-2.62c.34,1.23,1.15,2.61,1,3.79-.19,1.47.48,2.17.73,3.24.22.91.08,1.66.57,2.71s1.16,5.34,1.31,6.59c.32,2.55,1.39,3.91,3.81,4.82l15.17,5.71c1.1.41,1.81,1.38,3.47,1.62l-9.08,8.35c-.26.24-.66.38-.92.44s-.75-.22-.98-.51c-.72-.9-1.71-.99-2.61-1.59-1.14-.76-2.84-2.4-4.17-1.09-.76.74.72,1.84.93,2.47.35,1.05.42,2.03,1.29,2.83.63.57.79,2.33-.06,2.53-.96.23-1.34-1.13-1.92-1.37-1.19-.48-2.24-.66-3.1-1.68-.6-.71-1.69-.56-2.22-.11-.85.72.01,1.53.35,2.28.59,1.33.91,2.57,1.93,3.68.42.46.56,1.19.49,1.72-.08.57-.58.89-1.06,1.33l-7.23,6.7c-.36.33-.69.67-1.1.61-.3-.05-.97-.42-.95-.94ZM396.79,97.6c-.56-.99-.78-2.14-1.51-2.73-.93-.76-1.99-1.22-2.76-2.2-.66-.84-1.61-.25-2.09.32-.62.73.08,1.26.34,2,.49,1.38,1.14,2.24,2.54,2.83.74.31,1.08,1.44,1.95,1.75s2.08-1.01,1.54-1.97Z"/> <path class="cls-1" d="M238.13,475.13l-.36-9.79c-.04-1-.35-2.95.87-3.29,1.08-.3,2.05-.55,3.07-1,.2-.09,4.28-.64,3.65-2.77-.09-.31-.76-.67-1.2-.52-1.18.41-1.73-.61-2.54-.78-1.43-.31-3.09-.03-3.81-1.72.74-.76,1.88-.39,2.66-.8.89-.47,1.53-1.1,2.68-1.1.98,0,2.17-.98,2.06-1.99-.09-.81-1.3-.67-1.81-.89-3.54-1.5-6.37-.31-6.12-2.61.12-1.08-.73-8.37-.12-11.66.23-1.25,1.84.09,2.48.27.85.24,1.85.46,2.62,1.13,1.16,1,4.31,1.58,4.85,2.57.51.94,1.6.89,2.36,1.38.81.52,3.93,1.95,4.99,2.26.86.25,1.27,1.09,2.17,1.02,1.41-.12,3.72-1.97,4.67-2.31,1.67-.61,2.78-1.69,4.23-2.64.78-.51,1.67-.63,2.43-1.33,1.61-1.47,3.93-2.11,5.75-3.27.45-.29,1.82-.96,1.84-.04l.28,10.05c.03,1.11.26,2.39-.88,3.03-.59.33-1.56-.05-2.13.35-2.85,2.04-4.31.38-4.81,1.6-.16.39-.28,1.41.19,1.68,1.2.68,2.69.37,4.03.71.67.17,1.1.91,1.96.8.81-.1,1.98,1.39,1.28,1.8-1.28.59-2.62,1.21-3.97,1.39l-3.03.41c-.47.06-.56.77-.46,1.1.13.4.28,1.11.88,1.16,1.81.13,3.36.9,5.07,1.15l2.23.32.32,3.27c.34,3.45.18,6.79.06,10.34-1.28-.6-1.87-1.08-2.91-1.31-.79-.17-1.33-1.41-2.1-1.49-1.18-.12-1.6-.79-2.53-1.25l-2.53-1.23c-.83-.4-2.01-.49-2.46-1.53-.38-.89-1.62-.59-2.06-.97-2.2-1.87-4.33-1.4-6.62-.11l-8,4.47c-.72.4-1.4.64-2.11,1.04-2.39,1.31-3.14,1.96-5.47,2.75-.42.14-1.63,1.26-1.67.36ZM256.74,457.05c2.1-.89,4.25-.26,4.39-1.93.17-2.01-4.03-1.89-3.97-1.91-1.41.42-2.59.61-4.09.64-.76.02-.65,1.29-.5,1.81.32,1.14,3.73,1.58,4.17,1.39Z"/> <path class="cls-1" d="M92.63,144.61c-.45.78-1.47.29-1.95-.02-1.64-1.04-3.27-2.09-4.78-3.22-1.16-.88,0-1.87.19-2.8.44-2.25.77-4.4.72-6.88-2.77,1.4-4.95,2.65-7.21,4.14-.57.37-.88,1.24-1.86.53-1.37-1-3.09-1.77-4.37-2.96-.83-.77-.14-2.08-.13-3,.03-3.66,1.64-2.84.82-6.64-.01-.89-3.75,1.55-4.05,1.79-.68.54-1.72.42-2.4,1.09-.9.9-2.53,1.41-3.69.68-1.61-1.02-3.12-1.89-4.81-3.15l4.05-6.7c.2-.33.53-.52.73-.65.27-.18,7.06,2.15,6.09,2l2.73.41c.85.13,1.26-.67,1.47-1.15.42-.96-.53-1.2-1.06-1.83-.89-1.07-1.49-2.29-2.72-3.14-.36-.25-.61-.82-.47-1.15.59-1.33,2.46.48,3.34.42,1.2-.08,2.04.22,3.05.8.67.39,1.37-.54,1.59-1.05.3-.67-.55-1.29-.94-1.85-.77-1.08-1.29-2.05-2.35-2.96-.56-.47-.63-1.57-1.48-2.06.97-.87,1.51.15,2.28.34,4.34,1.05,5.23,2.34,6.56.74.35-.42.57-1.64.03-2.02-1.08-.76-1.69-1.58-2.34-2.69-.53-.91-1.59-1.5-2.24-2.33-1.44-1.84,1.53-3.63,2.93-6.82.16-.36.09-.83.36-1.01.85-.58,5.02,2.65,6.02,3.37.58,1.13,0,2.71-.12,3.89l-.57,5.46c-.07.64.81,1.97,1.35,1.33.92-1.09,1.55-1.95,2.92-2.48.76-.29,1.47-1,2.3-1.4.62-.3,1.15-1.76,2.09-1.63,1.71.71,3.49,1.87,4.93,3.05.78.69.03,2.29.03,3.12,0,2.87-1.34,4.21-1.24,7.4,1.07.44,6.77-3.3,7.71-3.94.88-.6,1.74-1,2.77-.3l4.75,3.2c-1.15,2.21-2.54,4.29-3.9,6.28-.86,1.25-2.27-.14-3.09-.28-1.77-.3-3.04-.47-4.58-1.58-.7-.5-1.8.7-2.1,1.35-.37.81.45,1.92.95,2.61.74.99.88,2.04,2.22,2.57.25.1.54.67.43.87-.76,1.41-2.26-.62-6.21-1-.62-.06-1.13-.73-1.68-.12-2.98,3.34,4.41,5.39,2.76,7.94-1.29-.85-2.4-.98-3.64-1.34-.98-.29-2.86-1.07-3.44.4-.43,1.08.62,2.81,1.49,3.43.82.59.97,1.3,1.53,2.04.44.59,2.13,1.37,1.69,2.34-.51,1.13-.97,2.16-1.35,3.35-.35,1.1-1.45,2.05-2.11,3.2ZM89.99,122.19c1.51-.15,2.55-1.42,2.07-2.85-1.33-3.94-.22-6.75-2.65-6.33l-7.67,1.33c-.43,2.41.78,4.58.85,7.07.02.76,0,1.27.61,1.71,1.35.95,3.95-.65,6.79-.93Z"/> <path class="cls-1" d="M379.9,428.49c-1.6-1.71-3.31-3.06-4.51-4.95-.51-.81.27-2.07.59-2.82.76-1.78,1.13-3.51,2.03-5.22.43-.82.47-2.53-.52-2.76-1.77,1.57-3.68,1.82-6.35,2.54-.59.16-1.52,1.66-2.27,1.06-1.39-1.11-2.86-2.55-3.95-4.05-.72-1.42,2.79-7.64,3.97-9.5-1.26-1.09-2.8-.32-4.18.07l-3.95,1.14c-3.78,1.09-3.08-.96-7.01-4.5,1.12-1.1,5.25-5.64,6.12-5.46,1.9.39.34.8,3.78,1.95,1.01.33,1.47,1.7,2.44,2.14.91.42,2.02-.25,2.37-.88.57-1.03.1-1.73-.31-2.7-.44-1.06-.48-2.19-1.38-3.07-.29-.28-.23-.78-.08-.98.23-.31.89-.47,1.18-.06.36.5,4.8,3.6,5.9,3.17,3.85-1.5-2.3-6.28-.82-7.9.69-.63,1.33.88,1.88,1.08,2.67,1.01,2.7,2.19,4.2,1.79,2.1-.56.57-3.75.64-3.67-.74-.95-.9-1.78-1.31-2.87-.3-.79-1.76-1.84-1.05-2.87.55-.79,1.28-1.41,1.76-2.32.81-1.53,2.41-2.53,3.9-3.55,1.45,1.5,5.22,4.72,5.25,6.2,0,.36-.4.91-.74,1.21-.87.74-.87,1.59-1.27,2.55l-1,2.36c-.22.52-1.07,1.41-.51,1.97,1.87.23,7.1-1.87,9.44-2.49,1.65,2.57,4.8,3.76,3.76,6.03-.54,1.19-.88,2.59-1.63,3.69-.85,1.26-1.81,2.54-1.3,4.3l5.42-1.27c1.55-.36,3.74-1.29,5.07-.14,1.56,1.34,2.67,2.97,4.1,4.5-2.1,1.81-3.84,3.39-5.56,5.21-.84.89-1.55.23-2.35-.2-.88-.48-1.81-.76-2.56-1.55-.97-1.02-4.14-2.85-4.94-2.32-.45.3-1.34,1.13-.81,1.84s.73,1.4.96,2.3c.3,1.21,2.57,2.91,1.41,3.86-.93.76-1.66-1.19-3.13-1.59-2.83-.76-2.27-2.51-4-1.25-1.09.79-.29,1.35.02,2.32.42,1.3.68,2.3,1.6,3.42.47.58.23,1.91,1.02,2.6-1.09.67-1.4-.58-2.07-.87-1.79-.76-3.1-2-4.75-3-.82-.5-2.78,1.26-2.23,2.19.76,1.3,1.38,2.18,1.7,3.69.22,1.04,2.07,2.15,1.57,3.52-.82,2.25-3.8,3.31-5.51,6.05ZM386.09,398.22c.15-.52-.02-1.04-.28-1.37-.23-.3-.73-.52-1.27-.48-3.34.28-6.83-1.27-7.84.8-.68,1.39-.39,2.96-.54,4.47-.1.96-.66,2.02-.02,2.91,1.09,1.52,5.86.38,8.84,1.43,1.48-2.66.31-5.03,1.11-7.75Z"/> <path class="cls-1" d="M430.35,376.25c-.55,6.18-1.44,1.66-1.5,6.42l-9.1-6.89c-.74-.56-1.22-1.64-.62-2.44.36-.48,2.67-5.33,2.02-6.31-.29-.44-.71-1.23-1.54-.97-.92.29-1.25,1.54-2.12,1.87-.93.36-1.72.53-2.3,1.48-.29.47-1.22.97-1.69.52-.73-.71.46-1.39.57-1.9.28-1.27.22-2.27,1.05-3.35.64-.84.48-2.54-.5-2.92s-1.58.72-2.24,1.07c-3.59,1.89-3.64,4.99-6.13,2.83-2.73-2.37-5.96-4.15-8.56-6.68-.77-.74,1.11-1.33,1.66-1.57l2.34-1.02c.92-.4,1.49-.97,2.54-1.27.84-.24,1.48-1.4,2.72-1.18,1.1.19,1.77-.61,2.64-.99-.16.07,5.4-2.49,4.33-2.13,1.68-.57,3.11-1.2,3.46-3.18l.78-4.43c.67-3.77.68-7.45,1.57-11.75l.64-3.07c1.28,1.2,2.47,1.34,3.47,2.01,2.14,1.43,4.03,3,5.99,4.55.66.52,1.12,1.09,1.2,1.73.1.81-.74,1.3-.96,2.01-.46,1.51-.52,2.99-1.8,4.15-.37.33-.09,1.1.24,1.36,1.42,1.16,4.93-5.53,8.37-3.56-.67,2.19-1.26,4.38-2.71,6.15-.31.38-.45.7-.42,1.09.16,2.1,4.15-1.68,3.96-1.55,1.19-.81,2.35-1.52,3.44-2.45.62-.53,1.42.53,1.86.87l8.27,6.33c.36.28.86.32.78.82-.04.27-.31.72-.69.89l-2.67,1.22c.32-.15-5.13,1.83-5.9,2.33-5.04,3.26-9.79,2.12-9.65,6.62-.02-.59-1.19,6.15-1.24,6.43l-.81,4.45c-.15.85-.65,1.4-.74,2.4ZM426.48,355.81c.14-.86,1.07-1.45,1.36-2.31s-.57-1.42-1.04-1.66c-.91-.45-1.37.35-2,.76-1.06.69-1.38,1.57-2.01,2.65l-1.49,2.51c-.39.66.78,1.31,1.31,1.46.34.09,3.54-1.3,3.88-3.42Z"/> <path class="cls-1" d="M67.1,195.22c-.15,1.04.7,1.89.07,3.06l-11.2-4.71c-1.05-.44-.13-2.25-.13-3.03-.01-4.74,1.57-5.47-.24-6-.59-.17-1.46-.34-1.8.39-2.38,5.2-2.02,2.43-3.55,4.91-.19.3-1.01.14-1.26.05-.8-.29.55-.94.11-4.29-.12-.88.87-1.62.87-2.49,0-.77-.6-1.14-1.08-1.21-2.47-.35-.95,1.18-4.21,3.95-.77.66-.8,1.76-1.61,2.6l-11.75-4.94c.82-2,3.73-2.98,4.18-3.37l2.08-1.83c.58-.51,1.59-1.24,2.04-1.79.93-1.13,2.08-1.42,3.27-2.19.78-.5,1.32-1.53,2.31-1.95.6-.26,1.08-1.56,1.71-2.03l-.82-10.89-.65-8.55c-.07-.87.45-1.78-.1-2.95l10.64,4.31c.79.32,1.57.92,1.19,1.95-.46,1.22-1.5,7.02.48,7.47,1.82.41.87-1.64,3.28-3.08.94-.56.86-2.71,2.29-2.53.67.09.58.88.37,1.47-.47,1.33.07,2.66-.3,4.01-.17.61-.34,1.37-.03,1.92.25.44.83,1.11,1.6.96.85-.17.85-1.26,1.38-1.69,3.44-2.77,2.04-5.5,5.19-4.2l9.41,3.9c.4.17.74.35.82.66s-.12,1.09-.54,1.13c-.98.08-1.14,1.05-1.71,1.38-1.03.58-1.6,1.17-2.42,1.97-.64.62-1.43.9-1.95,1.81-.38.67-1.74.51-2.26,1.13-.6.73-1.6,1.17-2.11,1.87-.66.89-1.4,1.23-2.17,1.89-.63.55-1.05,1.23-1.9,1.65-.75.36-1.36,2.17-1.21,3.12.31,1.9.19,4.44.75,6.62.3,1.17.18,2.2.32,3.25.27,2.07.95,4.06.63,6.28ZM58.18,172.89c-.03-.98.99-2.04.78-3.13-.11-.56-1.76-1.11-2.1-.65-3.99,4.48-1.43,1.95-3.03,6.89-.27.84,1.07,1.2,1.61,1.21.49,0,2.8-2.21,2.74-4.31Z"/> <path class="cls-1" d="M202.61,471.14l-.67-5.6c-.13-1.06.03-1.93-.6-2.9-.18-.28.02-.81-.22-1.09-.29-.35-1.99-.78-2.53-.46-.26.15-.5.65-.52,1.09-.04.88-.66,1.2-1.09,1.78s-.66,3.42-1.65,3.11c-.32-.1-.64-.48-.58-.9.18-1.21-.45-2.07-.54-3.16l-.21-2.36c-.07-.79-2.29-1.03-2.54-.14-.33,1.17-1.14,1.77-1.64,2.71-.63,1.18-.49,2.7-2.12,3.17l-.66-6.18c-.12-1.11-1.3-1.83-2.21-1.69-2.9.44-.94,2.63-3.06,3.94-.77.48-.45,4.32-2.76,3.98l-6.8-1c.13-2.19.42-4.21,1-6.34l9.08-2.94c.46-.15.61-.78.71-1.06.12-.35-.03-1.26-.57-1.25-2.23.03-4.98-2.96-5.34-3.1l-2.53-.97.74-5.62c1.19-.7,2.49-.87,3.78-1.25.79-.23,1.46-.85,2.4-.65,1.03.22,4.84-.96,3.8-1.98-2.02-1.99-.95-1.26-3.82-3.2-.81-.55-1.58-.64-2.17-1.63-.22-.37-1.16-.35-1.33-.73-.76-1.74.64-3.79.48-7.01,2.31.13,4.35.51,6.51.81s.53,2.44,1.77,4.81c.54,1.03-.33,2.29-.02,3.19.29.85,1.62,1.47,2.29,1.36,1.17-.21,1.64-1.03,2.16-2.1.44-.89,1.67-1.48,1.42-2.74-.04-.22.25-.5.34-.6,1.31-1.57.38,5.36,2.04,7.09.63.66,2.23.32,2.7-.19,2.76-2.95.65-3.97,3.31-4.86.31,1.56-.18,2.88.25,4.22.4,1.23,1.36,2.67,2.75,2.1.57-.24,1.3-1.02,1.78-1.45.65-.59.2-1.81.74-2.41,1.96-2.16,1.14-3.84,2.22-3.6,1.7.37,5.52.19,7.89.77-.17,2.28-.45,4.17-.78,6.22-.38,2.32-2.94.81-4.52,1.75-1.49.88-3.33.94-4.89,1.62-1.09.34,3.18,3.12,3.49,3.33l1.83,1.28c.83.58,1.38,1.27,2.64,1.57-.5,1.86-.23,3.94-1.08,5.77-1.24.89-3.72,1.69-5.4,1.8-1.79.11-3.3.33-4.1,2.15.88.37,1.51.84,2.14,1.38l3.47,2.92c2.93,2.46,2.63,1.9,1.37,8.47l-8.16-1.2ZM199.24,451.98c.52-.29,1-.5,1.09-.95.11-.55,0-1.07-.37-1.55-1.4-1.81-2.6-3.7-4.19-5.39-.71-.75-2.28-.07-2.96.49-2.58,2.15-5.73,2.92-4.46,4.77l3.8,5.52c1.65,2.4,1.98-.08,7.1-2.9Z"/> <path class="cls-1" d="M423.51,172.8c-1.4-.69-1.61-2.5-2.51-3.52-.7-.79-1.54-1.72-1.02-2.85.42-.92,1.61-1.33,2.07-2.21,1.63-3.11,2.97-1.91,3.07-3.31.07-.99.11-1.76-.5-2.2-1.3-.95-2.03-.43-3.24-.24-.99.16-2.25-.36-3.1.77-.09.12-.58,0-.72,0-.2.01-.3-.63.01-.71.86-.23.87-1.09,1.35-1.52.95-.86,1.81-1.43,2.26-2.73.14-.41.9-.63.79-1.11-.1-.42-.26-.88-.69-1.34-.77-.82-2.59-1.06-3.62-.44-1.14.68-2.25,1.12-3.47.49,1.31-1.74,4.22-3.53,3.68-5.35-.4-1.33-2.79-2.05-4.71-.77-.68.45-1.65-.04-2.47.32-.56.24-1.76,1.25-2.35.57-2.14-2.46-2.94-3.53-4.5-6.66,1.7-1.29,3.39-2.3,5.03-3.24s2.3.28,3.15,1.22c.54.6,5.55,3.58,5.25,3.54.23.03.93,0,.91-.39l-.32-4.96c-.11-1.62-.33-3.13-.5-4.81l4.76-2.84c.18-.11,4.68,2.29,5.53,3.49.73,1.03,2.52,2.02,3.62,1.09l-.09-2.89c-.05-1.53-.61-6.29.43-7.35,1.36-1.39,3.28-2.09,4.98-3.14l4.52,7c-.8,1.17-2.27,1.81-2.86,3-.49,1.01-1.36,1.1-2.07,1.82-.58.58-.7,1.83-1.51,2.51-.34.57.78,1.87,1.36,2.15.65.32,1.15-.49,1.62-.5,3.6-.03,4.3-1.76,4.89-.77.14.23.06.89-.29,1.03-1.34.54-1.64,1.6-2.33,2.68-.4.62-1.35.89-1.38,1.57-.04.85.44,1.39.96,1.76.78.56,1.39-.19,2.15-.37.58-.14,1.34.49,1.93.02.98-.79,2.28-1.2,3.33-.4-1.57,1.24-2.42,2.64-3.68,3.81-.78.72-1.22,1.81-.85,2.77.26.69,1.77,1.52,2.54,1.05,1.31-.79,2.31-.64,3.66-.77.97-.09,2.55-1.92,3.73-.7,1.63,1.67,2.58,4.16,4.08,6.13-1.85,1.49-3.56,2.38-5.39,3.36-1.44-.52-2.31-1.55-3.56-2.15-2.01-.96-4.12-2.93-5.04-2.93-.52,0-1.87.48-1.61,1.08.89,1.49,1.11,2.47,1.13,4.05,0,.68.37,1.73.16,2.58-.15.61,1.56,1.71.68,2.47-1.19,1.01-2.83,2.13-4.38,2.73-2.02.78-7.74-5.74-8.95-5.38-1.6.48-.63,4.78-.63,4.28v2.24c.01.88.59,2.4.37,3.23-.38,1.46-2.43,1.93-3.54,2.7-.5.35-1.36,1.38-2.1,1.01ZM435.18,145.99c.18-.55.93-1.6.35-2.13-1.56-1.44-5.24-1.19-6.83-2.15-.5-.3-.89-.58-1.41-.32-.3.15-.72.34-.87.82-.61,2.01-.92,3.99-1.41,6.04-.21.86-.26,1.58.32,2.29.72.88,3.33,1.06,6,2.11,3.13,1.23,2.83-3.6,3.84-6.65Z"/> <path class="cls-2" d="M444.31,241.58l24.75,8.93v16.25s-40.06-24.78-40.06-24.78l40.01-24.4.05,18-10.82,1.97c-4.71,1.07-9.27,1.98-13.94,4.03Z"/> <path class="cls-2" d="M49.75,241.89c.44-.51-.27-.69-.66-.9-5.09-1.63-10.16-2.99-15.46-3.93-2.92-.36-5.7-.52-8.49-1.53l.07-17.93,39.99,24.39-40,24.79-.07-16.24,24.64-8.65Z"/> <path class="cls-1" d="M317.66,460.6c-.44.56-1.54-.29-1.84-.73-1.64-2.41-2.16-6.26-3.61-6.05s-1.16,3.31-3.22,5.28c-.47.45-.86.87-1.42.76-2.24-.45-1.47-4.34-.69-6.32.2-.5.77-1.64.26-2.05-1.09-.62-2.24.52-3.15,1.02-1.22.67-2.35,1.14-3.65,1.7-.6.26-2.17.08-2.07-.73.08-.71.59-1.67.92-2.33,1.47-2.87,4.41-3.81,3.83-5.27-.32-.82-3.56,1-7.92-.37-.47-.15-1.16-.82-1.01-1.28,2.75-1.94,3.16-1.49,6.47-3.15.66-.33,1.57-1.51.7-1.94l-4.19-2.07-1.25-1.54c-.29-.36-.81-.47-.83-.87-.15-2.65,5.83-.91,7.55-.22.44.18,1.57.28,1.66-.15-.12-1.31-1.11-2.25-1.73-3.21s-3.28-5.69-.96-5.72c1.01-.01,2.39.67,3.22,1.31,1.03.8,1.69,2.42,3,2.82,1.01.32,1.12-1.14,1.27-1.69.73-2.73-.92-3.67,1.13-6.64.36-.52,1.35.22,1.61.6,2.15,3.15,2.05,6.99,3.5,6.88.4-.03.62-.58.8-.95l1.75-3.56c.34-.69,1.29-.91,1.67-1.75.22-.5,1.49-.32,1.74.19.36.75.85,1.76.61,2.58l-1.51,5.3c1.46.36,2.42-.56,3.51-1.11.72-.37,5.15-2.42,5.46-1.16.6,2.43-2.17,4.38-2.76,5.47-2.46,4.61,4.32.92,6.95,3.32.65.6-.03,1.53-.71,1.86l-2.88,1.39c-.24.11-3.88.65-3.94,2.21-.04,1.07,3.24,1.21,5.02,2.64.64.51,1.15,1.36,1.65,1.99.4.49-.21,1.06-.49,1.28-.39.31-1.11-.16-1.57-.11-1.31.15-2.33.41-3.62-.14-1-.43-2.67-.37-3.1.73-.28.71.76,1.01,1.07,1.36,1.55,1.73,2.04,4.01,1.97,6.32-2.08.35-5.83-2.54-6.45-4.1-.17-.42-.99-.12-1.18.12-1.24,1.54.91,4.87-1.58,8.09ZM312.55,443.16c-.85-.78-1.55-2.6-.83-3.69.35-.54,1.53-1.09,2.14-1.11,1.15-.04,1.68,1.18,2.05,2.08,1.55-.35,3.01-.62,4.33-1.42.44-.26.14-1.13-.29-1.29-1.82-.71-2.85,1.22-3.39.2-.29-.55,1.26-3.13-.26-3.05-1.28.06-1.86,1.65-2.74,2.47-.87-.34-.96-3.32-2.29-2.8-.29.11-.8.46-.8.97-.01.87.53,1.57.89,2.52-1.24.84-3.43-1.16-4,.75-.51,1.68,2.93,1.53,3.01,2.57-.38,1.01-2.1.05-2.44,1.74-.14.7.21,1.2.89,1.33,1.43.29,1.58-1.29,2.35-.8s-1.03,2.46-.21,3.38c.45.51,1.38.37,1.86,0,.51-.38,1.09-2.12.98-2.95-.08-.58-.79-.47-1.25-.9ZM316.55,443.64c1.04-.19,3.71,1.05,3.89-.6.15-1.44-2.76-2.22-3.52-1.42-.66.69-1.49,1.44-1.96,2.37-.5.99.3,3.23,1.31,3.44,1.08.21,1.6-1.82.29-3.78Z"/> <path class="cls-1" d="M449.56,322.18c-.69-.25-1.12-1.44-1.38-2.05-1.39-3.27-.39-6.05-1.82-6.48-.22-.07-.72.23-.76.58-.12,1.08-3.93,6.54-6.18,5.51l.47-2.88c.12-.72,2.65-6.15.43-5.98-1.6.12-2.94,1.36-4.4,1.99-.65.28-1.34-.26-1.95-.06-.7.23-1.21.25-1.66-.24-.58-.64-.11-1.05.35-1.68,2.67-3.64,6.24-4.43,5.41-5.2-1.25-1.17-4.18-.44-7.4-1.69-.58-.23-1.83-.85-1.31-1.73,1.53-2.61,5.81-1.61,7.3-2.55s-2.44-3.76-3.51-4.37c.01,0-1.64-2.04-1.44-2.86.08-.33.42-.46.86-.54,3.15-.58,6.11,2.46,8.3,1.33-.62-2.26-3.51-5.78-2.1-7.88.66-.99,2.11-.21,2.84.4,1.55,1.27,2.22,3.16,3.67,4.88,1.61-.73,1.3-7.96,3.81-8.6,2.7,2.26,1.68,3.96,2.68,5.83.23.43.46,1.89,1.25,1.44,1.6-.9,2.96-4.23,5.63-5.04,1.78-.54.32,4.45.03,5.21-.5,1.27-1.53,2.69-.73,4.05.55.94,2.83-1.34,5.38-2.16.49-.16,1.12.32,1.64.06.81-.4,1.3.07,1.6.69.37.77-.49.9-.93,1.46-.81,1.02-1.35,2.29-2.67,2.95-1.08.55-1.81,2.23-.87,3.12,2.72-1.2,8.32,1.35,7.22,2.65-1.73,2.04-6.25,1.74-7.29,2.26-.79.39.15,1.79.74,2.12,1.58.9,6.19,4.45,3.32,5.83-1.23.59-6.42-2.23-7.59-1.09s4.09,5.78,1.25,7.7c-1.31.88-3.29-1.42-4.11-2.45-.76-.96-1.08-2.21-2.26-2.87-1.14.96-.96,2.46-1.31,3.83l-.76,2.95c-.16.62-.84,1.89-1.73,1.57ZM447.22,305.85c-.73,1.13-.3,2.94.91,2.93,1.07,0,1.46-1.76,1.67-2.61.89-.65,1.27,2.67,2.75,2.15.58-.2,1.04-.78.91-1.54-.2-1.12-.86-2.27-1.85-2.83-1.55,1.02-3.92.78-4.56-1.03-.19-.54.06-1.72.3-2.24.47-1.01,1.99-.5,2.81-.55.46-.03,2.54-3.93,1.39-4.65-1.88-1.19-2.02,2.65-2.66,2.64-.83-.02-1.21-2.35-2.3-2.32-1.19.03-1.49,1.56-1.09,2.44.27.58.55,1.11.33,1.68-.96.04-1.98-.81-3.03-.44-.53.19-.36,1.73.06,2.15.49.48,1.21.81,2.15.89.2,1.22-2.99,1.51-1.93,3.33,1.22,2.1,3.53-1.29,4.14.01ZM455.87,304.34c.89-1.4-1.35-2.45-2.33-2.31-.76-1.18,1.66-1.21,1.75-2.53.04-.54-.19-1-.66-1.27-.63-.37-3.11.48-2.83,2.39.13.88.32,2.16.85,2.93.5.71,2.76,1.51,3.22.79Z"/> <path class="cls-1" d="M345.52,77.11c-.15.7-2.13,5.65-3.58,4.08-2.07-2.25-.07-6.02-1.04-7.58-.57-.92-3.55,1.07-4.62,2.41-.6.75-2.4,1.55-3.35,1.18-2.57-.99,4.53-8.28,2.22-8.69-1.56-.28-3.19,1.16-4.83,1.06-.95-.06-1.81-.17-2.69-.17-.63,0-.79-1.31-.55-1.73,1.37-2.37,4.03-2.64,6.57-4.17-.9-1.38-2.32-1.3-3.44-1.92l-2.79-1.55c-.5-.28-1.87-1.1-1.35-1.89.57-.85,2.48-1.41,3.51-1.34,1.62.11,3.09.09,4.6-.78-1.2-2.4-4.49-4.54-4.1-6.86.35-2.03,5.65,1.34,6.59,2.05.55.42,2.31.8,2.52.04-1.19-5.82-1.78-2-.98-7.86.08-.56,1.09-.42,1.47-.39.48.04.38.96.75,1.24,1.06.81,1.74,1.33,2.13,2.69.26.92,1.54,2.23,2.43,2.11,1.16-.16.47-1.49.59-2.03.5-2.18,1.79-4.08,3.68-5.43,2.18,3.6.88,4.51,1.37,6.36.1.38-.71.9-.47,1.31s.57.87,1.16.79c1.21-.16,1.63-1.28,2.42-1.97s3.71-2.56,4.73-1.87c1.42.95-1.29,5.5-2.07,6.71-.27.42-.04,1.21.1,1.52.61,1.39,3.79-1.59,7.14-.79.56.13.76.89.77,1.26.01,1.68-2.03,2.47-3.51,3.47-.75.51-2.49.5-2.67,1.62-.06,1.43,8.85,3.07,7.25,5.13s-8.44.65-8.79,1.29c-.17.32-.14.79.23,1.09,1.73,1.38,5.46,4.62,4.16,7.24-.82-.85-2.03-.54-2.69-1-.82-.58-5.09-3.28-5.65-1.81s2.49,7.79-.29,8.52c-.76.2-.87-.48-1.33-.95-4.01-4.13-1.84-5.11-4.13-6.14-.82,1-1.21,2.48-1.47,3.74ZM349.39,55.79c-2.14-1.72-2.88,1.73-3.44,1.72-.44,0-1.34-3.66-2.95-2.13-.99.95-.08,3.29,1.26,3.59,1.03.23,2.3.35,3.27-.13.81-.4,2.15-2.22,1.86-3.06ZM348.65,64.89c.18-.86,1.09,1.02,4.04-.13-.17-1.56-1.4-2.25-2.65-2.79.14-1.07,3.06-.68,2.53-2.65-.25-.94-1.02-1.45-2.03-1.01-.91.4-1.8.7-2.69,1.4.85,1.82,0,4.25-2.03,4.5-.48.06-1.3-.7-1.84-.89-1.2-.42.1-2.65-.06-3.06,0-.01-2.94-2.61-4.16-2.3-.76.19-.52,1.46-.19,1.9.9,1.18,2.4.84,2.12,1.54s-2.55.81-2.85,1.86c-.48,1.71,3.13,1.36,3.88,1.49l-1.14,2.8c.15.55,1.63.9,2.19.64.94-.45.87-1.68,1.69-2.42l1.59,2.66c.31.52,1.9-.06,2.1-.63.4-1.09-.71-1.88-.5-2.92Z"/> <path class="cls-1" d="M144.13,83.62c-.95-.04-1.45-3.08-1.45-2.85-.04-1.91,1.05-4.44.46-5.51-.7-1.26-5.77,4.04-8.51,4.09-.03-5.57,2.11-3.4,2-5.56-.05-1,.76-1.72,1.07-2.63.13-.39-.79-.72-1.12-.58-1.08.46-2.04.32-3.18.39-1.34.08-2.89.81-4.19.04-1.49-.87,2.61-3.2,3.11-3.35,3.66-1.1,4.14-3.33,3.26-3.57l-4.87-1.34c.33.09-2.11-1.37-2.29-2.23-.32-1.48,1.46.04,3.33-.99,1.5-.83,3.47.95,4.9-.45.34-.34.79-1.57.22-1.83-2.96-1.35-3.41-3.14-4.15-6.25,4.93.46,2.28.72,5.75,2.21.5.22.35,1.37,1.05,1.25s1.32.03,1.67-.48.4-1.22.04-1.78c-.6-.95-.29-1.92-.45-3.01-.17-1.16-.68-2.89.4-3.71.59-.45,1.54.53,1.83.97l1.84,2.82c.68,1.05,1.2,2.25,2.58,2.78,1.88-2.24.21-3.3,2.53-6.15.45-.55.4-1.34,1.34-1.15,1.6.33.51,1.6,1.27,3.92.33,1.01-.49,2.19-.5,3.33,0,.57.41,1.66,1,1.34,1.96-1.08,7.16-5.67,7.7-4.24s-.47,2.99-1.38,3.94c-.47.5-.25,1.4-.76,1.82-.58.48-1.14.8-1.23,1.41-.71,4.71,4.27-1.55,9.15,1.25l-1.71,1.64c.52-.5-4.84,2.48-4.96,3.31-.09.6-.3,1.58.32,1.76l4.67,1.34c.69.2.8,1.41,1.85,1.49.31.02.57.62.49.85s-.48.69-.88.58c-1.17-.3-1.95.2-2.95.45-1.26.32-4.91-1.27-5.38-.03-.39,1.02,1.32,2.3,1.86,2.83.85.84,3.94,4.56,2.78,5.56.02-.02-2.38.52-4.32-1.55-.55-.59-1.51-.86-2.08-1.63-.29-.39-1.36-.14-1.7.07s-.48,1.12-.25,1.58c.49,1.01-.05,1.91.13,2.8.27,1.31,1.02,2.87.12,4.23-1.1,1.67-3.96-4.05-4.28-4.93-.28-.75-1.43-2.52-2.35-1.44-1.04,1.22-.73,3.64-1.72,5.02-.4.55-1.06.8-1.21,1.6-.08.41-.6.58-.85.57ZM148.93,68.12c.9.35.94,1.83,1.86,2.12.69.22,1.22-.63,1.26-1.08.09-1.18-1.4-2.04-.88-2.74.43-.58,2.06.55,2.94-.14.4-.31.54-.85.41-1.41-.3-1.28-3.03-.8-3.45-1.88,1.16-.44,2.94-1.53,2.05-2.71-.66-.88-2.32-.06-2.96.79l-.44-3.38c-.05-.39-1.53-.32-1.79.06-.72,1.06-.92,2.43-.7,3.6.55.39,1.34.07,1.76.53.78.84,1.63,2.42.96,3.52-.27.44-1.31.96-1.77,1.19-1.09.54-1.69-1.11-2.33-1.53-.97.1-5.29,1.62-4.18,3.02.72.91,2.46.03,3.65-.78.64,1.07-.34,2.48.47,3.35,1.33,1.42,2.32-2.85,3.15-2.53ZM142.56,64.41c1.63.23,2.38-.53,2.88-1.76.27-.67,1.02-1.12.93-1.8-.04-.28-1.37-3.7-2.24-2.92-1.2,1.08-.35,2.67.35,3.69.75,1.1-1.99-.17-3,.43-.4.24-.4.91-.29,1.47.1.48.62.79,1.37.9Z"/> <path class="cls-1" d="M123.65,424.71c-.2.81-1.04,1.38-.73,2.48.09.35-1.45.44-1.47.07-.01-1.17-1.07-1.9-1.38-2.9l-1.21-3.86c-.24-.75-1.83-.81-2.3-.13-.36.52.84,2.73-4.71,6.19-.2-1.32-.7-2.57-.36-3.74l.71-2.45c.24-.84,1.21-1.35.54-2.3-.43-.6-1.54-.88-2.25-.22-1,.93-1.97,1.34-3.24,1.79-.96.34-2.25,1.38-3.36.7-2.18-1.32,5.58-6.51,3.79-8.15-2.89-1.05-2.88.95-6.58-.46-.6-.23-1.16-.22-1.21-.96-.09-1.22,1.54-1.5,3.82-2.51,1.08-.48,2.58-.18,3.49-.93,1.4-1.16-3.38-3.12-5.84-5.55-.27-.27-.71-1.25-.28-1.44,3.04-1.41,9.46,2.74,9.17.07-.19-1.78-4.14-4.14-3.04-8.19,1.87,1.03,4.03,2.86,5.51,4.16.69.61,2.89,1.15,2.82-.18l-.28-4.93c.06,1.1.73-2.76,1.33-2.93,1.31-.36,1.05,1.52,1.65,2.18,2.2,2.43.58,5,2.48,6.09,1.29-.07,1.68-2.08,2.16-2.95.4-.72,3.33-5.42,4.2-3.95.53.9.69,2.49.39,3.49l-.72,2.43c-.23.78-.87.98-.57,1.7s1.07,1.35,1.92.78c.79-.52,1.8-.67,2.62-1.13,1.42-.8,2.65-1.94,4.59-1.46.23,1.05-.29,2.12-1.03,2.97l-2.33,2.63c-.42.48-1.16.56-1.25,1.11s-.25,1.77.56,1.8c1.73.08,3.51-.68,5.2-.17,3.15.94,2.59.56,2.61,1.66,0,.44-.43.63-.83.97-2.66,2.31-6.57.68-6.68,2.74-.04.74,6.76,4.42,6.23,6.25-.15.5-.8.34-1.22.46-1.53.44-2.48-.21-3.77-.5-1.05-.24-2.37-.04-3.49-.36-.71.47-.02,1.93.6,2.46s.27,1.56.78,2.11c.89.98,1.7,2.26,1.11,3.84-.54,1.45-4.42-2.2-5.31-3.5-.53-.78-2.63-1.65-3.03-.51-.51,1.49.6,3.49.17,5.21ZM121.69,411.36c1.1.47,1.67,1.58,2.79,1.98.52.18,1.4-.65,1.39-1.1-.02-1.82-2.26-2.36-1.72-3.26.28-.46,2.58-.08,2.49-1.57-.06-.83-.59-1.45-1.59-1.44-.67,0-1.45.24-1.96-.26.2-1.09,1.59-1.49,1.6-2.58s-1.89-1.48-2.61-.79c-.48.47-.74.96-1.42,1.32-.69-.86-.3-2.04-1.03-2.75-.41-.39-1.91-.29-2.13.21-.5,1.1.14,2.17-.25,3.34-1.76-1.59-1.53-.58-3.86-1.17-.87,1.85,3.29,3.88.57,4-1.33.06-1.82.85-1.59,1.96.42,2.01,3.59.29,3.33,1.47-.13.6-1.55,1.28-1.5,2.28.02.41.32,1.3.97,1.26,1.37-.09,2.45-1.07,3.25-2.04.45,1.01.29,2.33,1.18,2.85.53.31,1.58-.16,2.03-.36l.06-3.36Z"/> <path class="cls-2" d="M211.21,324.09l-.19-21.5-10.05,14.65-10.08-13.66-.16,20.56h-5.62s-.02-32.33-.02-32.33c3.39-.33,4.93-1.41,6.53,1.1l9.18,14.42c3.91-4.91,6.21-10.73,10-15.52l6.03-.02v32.24c-1.94.27-3.48.16-5.64.08Z"/> <path class="cls-2" d="M265.27,316.89c-4.26-.26-8.46-.43-12.7-.03-1.66,1.33-1.49,6.21-3.06,7.05-.82.44-5.09.3-5.37.08-.2-.15-.48-.66-.3-1.11l11.77-30.61c2.14-.76,4.32-.77,6.58,0,3.34,11.07,9.04,20.19,12.03,31.69-1.9.34-3.72.25-5.66.11-.69-.2-1.09-1.53-1.35-2.19l-1.93-4.99ZM263.34,311.51l-4.51-12.25-4.87,12.33c3.31.06,6.24.23,9.38-.08Z"/> <path class="cls-2" d="M243.21,310.19c-3.86,3.63-10.07,2.68-14.6,3.3l-.08,10.23c-1.97.68-3.96.87-6,.21l.19-22.39.2-9.68c5.22.35,11.25-.92,15.96.35,4.03,1.08,7.19,4.18,7.59,8.38.34,3.56-.67,7.16-3.25,9.59ZM240.23,304.45c.83-1.75.74-3.48-.22-5.12-2.08-3.54-7.9-2.17-11.69-2.39l.03,10.67c4.45-.37,9.68,1.48,11.88-3.16Z"/> <path class="cls-2" d="M282.63,315.78c1.77,2.27,4.27,3.36,6.87,3.23,2.45-.12,4.8-1.51,6.24-3.74,1.23-1.9,3.59.21,5.68.98-.42,2-1.54,3.68-3.19,5-4.42,3.53-10.44,4.23-15.71,1.95-8.69-3.76-10.06-15.81-6.77-23.31s12.38-10.65,19.76-7.24c2.84,1.31,4.94,3.55,6.23,6.44-1.36,1.29-3.05,2.13-4.9,2.39-1.52.21-.38-2.38-3.66-3.78-5.06-2.14-10.51.09-12.31,5.36-1.44,4.2-1.06,9.07,1.78,12.71Z"/> <path class="cls-2" d="M318.32,323.92c-1.93.48-3.7.18-5.82.19l-.07-27.07-8.89-.23c-.5-1.7-.4-3.32.11-5.04l23.45-.02c.17,1.75.16,3.34,0,5.13l-8.74.05-.06,27Z"/> <rect class="cls-2" x="173.12" y="291.33" width="7.94" height="33.47"/> <path class="cls-1" d="M311.06,45.03c-1.44.86-3.24.03-4.2-1.28s-.3-3.04.92-4.15c1.32-1.19,3.6-.8,4.62.6,1.09,1.5.55,3.7-1.34,4.82Z"/> <path class="cls-1" d="M348.97,425.65c.42-1.96,2.73-3.12,4.42-2.37.76.33,1.39,1.16,1.73,1.83.66,1.31.18,2.6-.8,3.48s-2.34,1.29-3.63.54c-.96-.56-2.08-1.81-1.72-3.48Z"/> <path class="cls-1" d="M115.37,85.28c-.32,1.82-2.5,3.02-3.98,2.41-1.7-.7-2.53-2.69-1.85-4.03.77-1.51,2.51-2.59,4.07-1.64,1,.61,2,1.84,1.76,3.25Z"/> <path class="cls-1" d="M153.54,434.59c.02,1.71-1.01,2.85-2.08,3.23-1.43.5-2.8-.3-3.64-1.61-1.03-1.6.09-3.58,1.83-4.22,1.47-.54,3.87.68,3.89,2.61Z"/> <path class="cls-3" d="M160.26,231.1c-4.7,2.01-10.11,2.02-15.07,2.3-1.76.1-3.43.65-5.21.43-1.45.55-2.84.47-4.53.75v-23.18s21.22.01,21.22.01c3.36,0,6.16,2.29,8.06,4.78,2.38,5.79,1.94,12.15-4.48,14.9Z"/> <path class="cls-3" d="M360.17,245.97c-4.5.51-8.33,2.27-12.32,3.9-2.45,1-4.63,2.29-7.56,2.73l11.99-31.98c.45-1.21,1.61-2.17,2.89-1.95l9.03,26.98c-1.33.57-2.57.15-4.03.32Z"/> <path class="cls-3" d="M58.21,311.73c-.28.58-.95.75-1.27.88-.64.27-.87-.52-1.38-.79l-5.47-2.91c-.37-.2-.6-.46-.66-.74-.09-.45.2-.77.49-1.16,1.44-1.97,1.95-4.55,3.53-6.4.84-.98,2.47.26,3.13.79,1.08.85,5.69,1.83,4.47,4.37l-2.85,5.96Z"/> <path class="cls-3" d="M205.53,41.27c-.78.52-6.26,2.36-7.18.8-1.12-1.92,4.51-2.81,5.7-2.81.89-.12,2.36,1.43,1.48,2.01Z"/> <path class="cls-3" d="M79.07,360.49c.16.05,5.59,6.19,2.69,7.05-1.14.34-3.67-3.26-3.91-5.26-.1-.81.32-2.06,1.22-1.8Z"/> <path class="cls-3" d="M270.29,35.7c1.72,1.73-1.44,2.68-3.63,5.37-.73.9-2.38,1.63-3.35.68l-4.71-4.61c-.43-.43-.26-1.16-.18-1.68.07-.45.77-.48,1.23-.83,1.68-1.3,2.84-3.22,4.67-4.34.8-.49,1.51.92,1.94,1.35l4.03,4.05Z"/> <path class="cls-3" d="M396.79,97.6c.54.96-.67,2.28-1.54,1.97s-1.21-1.44-1.95-1.75c-1.4-.59-2.04-1.45-2.54-2.83-.26-.74-.97-1.27-.34-2,.49-.57,1.43-1.16,2.09-.32.78.98,1.83,1.44,2.76,2.2.73.6.95,1.75,1.51,2.73Z"/> <path class="cls-3" d="M256.74,457.05c-.44.19-3.85-.25-4.17-1.39-.15-.52-.26-1.79.5-1.81,1.5-.04,2.69-.23,4.09-.64-.06.02,4.13-.09,3.97,1.91-.14,1.67-2.3,1.05-4.39,1.93Z"/> <path class="cls-3" d="M89.99,122.19c-2.85.28-5.44,1.88-6.79.93-.62-.44-.59-.95-.61-1.71-.07-2.49-1.28-4.66-.85-7.07l7.67-1.33c2.43-.42,1.32,2.39,2.65,6.33.48,1.43-.56,2.7-2.07,2.85Z"/> <path class="cls-3" d="M386.09,398.22c-.8,2.72.37,5.09-1.11,7.75-2.98-1.05-7.75.1-8.84-1.43-.64-.89-.08-1.95.02-2.91.15-1.51-.14-3.08.54-4.47,1.01-2.06,4.5-.52,7.84-.8.54-.05,1.04.18,1.27.48.26.33.43.85.28,1.37Z"/> <path class="cls-3" d="M426.48,355.81c-.34,2.11-3.53,3.51-3.88,3.42-.54-.15-1.7-.8-1.31-1.46l1.49-2.51c.64-1.07.95-1.96,2.01-2.65.64-.41,1.09-1.21,2-.76.47.23,1.31.84,1.04,1.66-.29.86-1.22,1.45-1.36,2.31Z"/> <path class="cls-3" d="M58.18,172.89c.06,2.1-2.25,4.32-2.74,4.31-.54,0-1.88-.37-1.61-1.21,1.6-4.94-.95-2.41,3.03-6.89.34-.46,1.99.09,2.1.65.21,1.09-.8,2.16-.78,3.13Z"/> <path class="cls-3" d="M199.24,451.98c-5.12,2.81-5.45,5.3-7.1,2.9l-3.8-5.52c-1.27-1.85,1.88-2.62,4.46-4.77.68-.56,2.25-1.24,2.96-.49,1.6,1.69,2.79,3.58,4.19,5.39.37.48.48,1,.37,1.55-.09.45-.57.66-1.09.95Z"/> <path class="cls-3" d="M435.18,145.99c-1.01,3.05-.71,7.88-3.84,6.65-2.68-1.05-5.28-1.22-6-2.11-.58-.71-.52-1.42-.32-2.29.49-2.05.8-4.04,1.41-6.04.15-.48.57-.67.87-.82.52-.26.91.02,1.41.32,1.59.96,5.27.71,6.83,2.15.58.53-.17,1.58-.35,2.13Z"/> <path class="cls-3" d="M312.55,443.16c.46.43,1.17.31,1.25.9.11.84-.47,2.57-.98,2.95-.47.36-1.41.5-1.86,0-.82-.93.97-2.9.21-3.38s-.92,1.09-2.35.8c-.68-.14-1.03-.63-.89-1.33.34-1.69,2.07-.73,2.44-1.74-.08-1.04-3.52-.9-3.01-2.57.58-1.91,2.76.09,4-.75-.36-.94-.9-1.65-.89-2.52,0-.51.52-.85.8-.97,1.33-.52,1.41,2.46,2.29,2.8.88-.81,1.47-2.41,2.74-2.47,1.52-.07-.03,2.5.26,3.05.54,1.02,1.56-.91,3.39-.2.43.17.72,1.03.29,1.29-1.33.8-2.78,1.07-4.33,1.42-.37-.9-.91-2.12-2.05-2.08-.61.02-1.79.57-2.14,1.11-.71,1.09-.02,2.91.83,3.69Z"/> <path class="cls-3" d="M316.55,443.64c1.31,1.96.79,4-.29,3.78-1.01-.2-1.81-2.45-1.31-3.44.47-.93,1.3-1.68,1.96-2.37.76-.8,3.68-.02,3.52,1.42-.18,1.65-2.84.41-3.89.6Z"/> <path class="cls-3" d="M447.22,305.85c-.6-1.3-2.91,2.09-4.14-.01-1.06-1.82,2.13-2.11,1.93-3.33-.94-.08-1.67-.41-2.15-.89-.42-.42-.59-1.95-.06-2.15,1.05-.37,2.06.48,3.03.44.21-.58-.07-1.1-.33-1.68-.4-.88-.1-2.41,1.09-2.44,1.08-.03,1.47,2.3,2.3,2.32.65.02.78-3.83,2.66-2.64,1.14.72-.93,4.62-1.39,4.65-.82.05-2.34-.45-2.81.55-.25.53-.49,1.7-.3,2.24.64,1.81,3.01,2.05,4.56,1.03.99.56,1.65,1.71,1.85,2.83.13.76-.33,1.34-.91,1.54-1.48.52-1.86-2.8-2.75-2.15-.21.84-.6,2.6-1.67,2.61-1.21.01-1.64-1.8-.91-2.93Z"/> <path class="cls-3" d="M455.87,304.34c-.47.72-2.73-.08-3.22-.79-.54-.77-.73-2.04-.85-2.93-.27-1.91,2.2-2.76,2.83-2.39.47.27.69.73.66,1.27-.09,1.32-2.51,1.35-1.75,2.53.98-.13,3.23.91,2.33,2.31Z"/> <path class="cls-3" d="M348.65,64.89c-.21,1.04.9,1.83.5,2.92-.21.56-1.79,1.14-2.1.63l-1.59-2.66c-.82.74-.75,1.98-1.69,2.42-.55.26-2.04-.09-2.19-.64l1.14-2.8c-.74-.14-4.36.22-3.88-1.49.3-1.06,2.57-1.18,2.85-1.86s-1.22-.37-2.12-1.54c-.33-.43-.58-1.7.19-1.9,1.22-.31,4.16,2.28,4.16,2.3.15.41-1.14,2.64.06,3.06.53.19,1.35.95,1.84.89,2.04-.25,2.89-2.69,2.03-4.5.89-.7,1.77-1.01,2.69-1.4,1.01-.44,1.78.07,2.03,1.01.53,1.97-2.39,1.58-2.53,2.65,1.24.54,2.48,1.23,2.65,2.79-2.94,1.15-3.86-.73-4.04.13Z"/> <path class="cls-3" d="M349.39,55.79c.3.84-1.04,2.66-1.86,3.06-.96.48-2.23.36-3.27.13-1.34-.3-2.26-2.64-1.26-3.59,1.6-1.54,2.51,2.12,2.95,2.13.56,0,1.3-3.44,3.44-1.72Z"/> <path class="cls-3" d="M148.93,68.12c-.82-.32-1.82,3.95-3.15,2.53-.81-.87.17-2.28-.47-3.35-1.19.81-2.93,1.7-3.65.78-1.11-1.4,3.21-2.92,4.18-3.02.64.41,1.24,2.07,2.33,1.53.45-.23,1.49-.75,1.77-1.19.68-1.1-.17-2.67-.96-3.52-.43-.46-1.21-.15-1.76-.53-.22-1.17-.02-2.53.7-3.6.26-.38,1.74-.45,1.79-.06l.44,3.38c.65-.85,2.3-1.67,2.96-.79.89,1.18-.89,2.27-2.05,2.71.42,1.08,3.16.6,3.45,1.88.13.56,0,1.09-.41,1.41-.88.69-2.5-.44-2.94.14-.52.7.97,1.56.88,2.74-.03.45-.57,1.3-1.26,1.08-.92-.29-.96-1.77-1.86-2.12Z"/> <path class="cls-3" d="M142.56,64.41c-.75-.11-1.27-.41-1.37-.9-.11-.56-.11-1.23.29-1.47,1.01-.6,3.75.67,3-.43-.7-1.02-1.55-2.62-.35-3.69.87-.78,2.2,2.64,2.24,2.92.09.68-.65,1.13-.93,1.8-.5,1.23-1.25,1.99-2.88,1.76Z"/> <path class="cls-3" d="M121.69,411.36l-.06,3.36c-.46.2-1.5.66-2.03.36-.9-.51-.73-1.84-1.18-2.85-.8.97-1.88,1.95-3.25,2.04-.65.04-.95-.85-.97-1.26-.04-1,1.37-1.69,1.5-2.28.26-1.19-2.91.54-3.33-1.47-.23-1.1.26-1.9,1.59-1.96,2.71-.12-1.44-2.15-.57-4,2.33.6,2.1-.42,3.86,1.17.39-1.17-.25-2.24.25-3.34.23-.5,1.73-.6,2.13-.21.73.71.34,1.89,1.03,2.75.67-.37.94-.86,1.42-1.32.72-.69,2.62-.33,2.61.79s-1.4,1.49-1.6,2.58c.51.49,1.29.26,1.96.26,1.01,0,1.54.61,1.59,1.44.1,1.49-2.21,1.11-2.49,1.57-.54.91,1.71,1.44,1.72,3.26,0,.46-.87,1.29-1.39,1.1-1.12-.4-1.69-1.51-2.79-1.98ZM118.35,408.87c-.39-1.53,1.35-1.77,1.96-2.52.08-.64-.83-.77-1.27-.66-.37.09-2.18,1.81-1.97,2.57.2.71.14,1.64,1,1.88s1.73.55,2.7.38c.33-.06.04-.98-.17-1.24-.42-.52-2,.63-2.26-.41ZM121.15,408.47c.92-.06.79-1.99-.12-1.8-.57.12-.52,1.84.12,1.8Z"/> <path class="cls-3" d="M263.34,311.51c-3.14.31-6.07.14-9.38.08l4.87-12.33,4.51,12.25Z"/> <path class="cls-3" d="M240.23,304.45c-2.2,4.64-7.44,2.79-11.88,3.16l-.03-10.67c3.8.22,9.61-1.15,11.69,2.39.96,1.63,1.05,3.36.22,5.12Z"/> <path class="cls-1" d="M118.35,408.87c.27,1.04,1.84-.11,2.26.41.21.26.5,1.18.17,1.24-.97.17-1.87-.15-2.7-.38s-.81-1.17-1-1.88c-.21-.76,1.6-2.48,1.97-2.57.43-.11,1.35.02,1.27.66-.62.75-2.36,1-1.96,2.52Z"/> <path class="cls-1" d="M121.15,408.47c-.64.04-.69-1.67-.12-1.8.91-.2,1.04,1.74.12,1.8Z"/> </svg>