<svg xmlns="http://www.w3.org/2000/svg" viewBox="0 0 575.41 63.76">
  <path fill="#ffffff" d="M295.17,4.13c1.66.46,15.16,23.06,17.25,26.21,2.91-2.45,15.19-25.7,16.72-25.7h10.04v53.2s-.72.77-.77.77h-8.23s-.77-.72-.77-.77V22.63l-16.73,24.66-16.73-23.12v34.44h-9.78V4.12c2.42.43,6.91-.59,9.01,0h-.01Z"/>
  <path fill="#ffffff" d="M61.77,58.1c2.66-9.83,15.66-20.54,26.09-16.03,2.26.98,4.03,2.54,3.77,5.23h-7.98c-.37,0-3.25.84-3.35,1.3,1.73,6.51,15.41,4.52,16.44-1.58,1.22-7.17-5.32-10.62-11.53-11.05-10.26-.71-16.57,4.64-23.44,11.33V4.12h28.56c1.35,0,7.77,2.78,9.17,3.69,7.43,4.80,7.84,16.69-.22,21.19-.79.44-3.89.66-3.55,2.1.15.62,6.33,2.16,7.97,3.35,7.19,5.24,5.11,17.95-2.48,21.68-.61.30-4.96,1.96-5.24,1.96h-34.23.02ZM72.06,29.31c7.97-2.17,25.49,1.55,21.89-12.35-.59-2.27-4.04-4.61-6.19-4.61h-15.70v16.96Z"/>
  <path fill="#ffffff" d="M.01,63.75v-21.07l32.42-11.31c.62-.83-6.90-2.73-7.61-2.93-3.34-.94-6.91-1.83-10.30-2.57-4.03-.88-10.03-1.14-13.65-2.30-.38-.12-.65-.35-.87-.68V.02l51.97,31.61L0,63.76h0Z"/>
  <path fill="#ffffff" d="M575.41,0v22.87c0,.22-.58.57-.88.66-10.66,1.81-21.48,3.52-31.55,7.56l32.43,11.57v21.07l-51.97-32.13L575.41,0h0Z"/>
  <path fill="#ffffff" d="M206.91,58.61l20.08-53.58c.79-1.38,11.79-1.41,12.89-.03l20.04,53.61h-10.04c-2.92-3.01-2.93-10.98-6.83-12.71-5.68-2.52-15.22,1.44-19.44,5.50-1,.96-5.41,7.22-6.16,7.22h-10.55,0ZM234.18,17.49l-1.55.76-9.25,24.42c5.75-1.91,11.19-5.58,17.50-5.14,0,0-6.70-20.04-6.70-20.04Z"/>
  <path fill="#ffffff" d="M125.59,4.13v35.72c0,.31,1.40,4.41,1.69,5,3.05,6.31,13.39,6.99,18.64,2.97,1.39-1.07,4.89-5.90,4.89-7.45V4.90c0-.05.72-.77.77-.77h9.26s.77.72.77.77v37.52c0,.44-2.61,6.93-3.07,7.72-7.36,12.50-32.79,11.99-40.90.72-.67-.93-2.86-5.50-2.86-6.39V4.89c0-.05.72-.77.77-.77h10.04Z"/>
  <path fill="#ffffff" d="M434.39,58.61h-9.52c-2.74-3.54-3.19-8.25-5.39-12.09-.85-.51-17.83-.53-19.85-.28-.63.08-1.04-.04-1.52.54-1.51,1.82-2.36,8.32-3.70,10.66-.27.47-.98,1.17-1.45,1.17h-8.23c-.68,0-1.05-2.01-.67-2.70l19.41-50.41c.74-1.13,11.47-2.07,11.61,1.20,4.80,15.99,14.38,32.73,18.81,48.55.31,1.12.67,2.17.49,3.36h.01ZM416.38,37.54l-7.46-20.57-7.98,20.57h15.44Z"/>
  <path fill="#ffffff" d="M372.37,4.64c12.70,1.51,19.28,12.02,14.91,24.15-4.54,12.60-17.48,11.27-28.55,11.83v16.71c0,1.66-7.60,1.55-9.01,1.29-.59-.11-1.05-.17-1.20-.86l.43-53.12c7.40.64,16.19-.86,23.42,0ZM358.22,30.86h13.64c.19,0,2.90-1.54,3.31-1.83,5.11-3.68,4.92-11.83-.79-14.56-.42-.20-2.84-1.08-3.03-1.08h-13.12v17.48h-.01Z"/>
  <path fill="#ffffff" d="M468.72,16.10c-.82-.89-4.68-2.27-5.99-2.50-15.89-2.72-21.90,14.78-16.42,27.20,3.84,8.71,13.96,12.15,21.55,5.73,1.05-.89,3.14-3.91,3.60-4.14,1.79-.90,6.50,2.22,8.53,2.82-1.73,8.57-11.89,13.71-20.13,13.91-21.18.51-28.87-18.95-24.27-37.12,4.18-16.52,24.09-23.45,37.88-13.98,1.87,1.28,7.24,6.87,6.68,9.10-.30,1.20-6.80,3.99-7.94,3.93-2.02-.10-2.42-3.81-3.48-4.96h-.01,0Z"/>
  <path fill="#ffffff" d="M166.25,4.64l12.87-.51-3.62,42.90c1.83,1.22,4.20,2.28,6.44,2.37,2.90.12,6.87-1.83,8.72-1.58.96.13,6.07,4.46,5.87,1.39-.07-1.12-1.58-2.53-.70-3.95.60-.96,7.97-5.51,9.53-6.17v19.28s-.72.77-.77.77h-38.34V4.65h0Z"/>
  <path fill="#ffffff" d="M522.92,4.64v8.74h-14.93v44.46s-.72.77-.77.77h-9.01V14.15c0-.05-.72-.77-.77-.77h-14.15c-.82-3.02-.51-5.72,0-8.74,0,0,39.63,0,39.63,0Z"/>
  <path fill="#ffffff" d="M276.90,58.61h-9.52s-.77-.72-.77-.77V4.90c0-.05.72-.77.77-.77h8.75c1.55,0,.42,6.29.45,7.37.22,8.69,1.31,17.60,1.37,26.28.05,6.96-.23,13.93-1.05,20.84h0Z"/>
  <rect fill="#ffffff" x="266.61" y="4.13" width="11.35" height="54.81"/>
</svg>